<svg id="Layer_1" data-name="Layer 1" xmlns="http://www.w3.org/2000/svg" viewBox="0 0 298.91 283.86"><defs><style>.cls-1,.cls-5,.cls-7{fill:#fff;}.cls-2{fill:#ea6b66;}.cls-2,.cls-3,.cls-4,.cls-7,.cls-8{stroke:#1d1d1b;}.cls-2,.cls-3,.cls-4,.cls-5,.cls-7,.cls-8{stroke-miterlimit:10;}.cls-3,.cls-4{fill:#d9d9d9;}.cls-3{opacity:0.5;}.cls-5{stroke:#ea6b66;}.cls-6{font-size:8px;font-family:ArialMT, Arial;}.cls-6,.cls-9{fill:#1d1d1b;}.cls-8{fill:none;}.cls-10{letter-spacing:-0.02em;}.cls-11{letter-spacing:-0.04em;}</style></defs><rect class="cls-1" width="298.91" height="283.86"/><rect class="cls-2" x="23.5" y="20.22" width="276.15" height="242.47" transform="translate(20.12 303.04) rotate(-90)"/><rect class="cls-3" x="3.36" y="77.37" width="210.53" height="117.24" transform="translate(-27.36 244.61) rotate(-90)"/><rect class="cls-3" x="13.98" y="86.54" width="210.53" height="117.24" transform="translate(-25.91 264.41) rotate(-90)"/><rect class="cls-3" x="24.35" y="96.19" width="210.53" height="117.24" transform="translate(-25.19 284.42) rotate(-90)"/><rect class="cls-4" x="34.63" y="106.08" width="210.53" height="117.24" transform="translate(-24.8 304.59) rotate(-90)"/><rect class="cls-5" x="114.39" y="62.53" width="50" height="100" transform="translate(26.86 251.93) rotate(-90)"/><text class="cls-6" transform="translate(50.01 14.85)">Application<tspan x="0" y="9.6">Processing Unit</tspan></text><rect class="cls-7" x="216.58" y="59.43" width="18.73" height="210.53"/><text class="cls-6" transform="translate(228.8 210.71) rotate(-90)">Snoop Control Unit (SCU)</text><rect class="cls-5" x="123.75" y="112.03" width="32.28" height="100.53" transform="translate(-22.41 302.19) rotate(-90)"/><text class="cls-6" transform="translate(119.16 110.09)">Cortex-A53<tspan x="2.22" y="9.6">Processor</tspan></text><line class="cls-8" x1="202.44" y1="244.9" x2="213.27" y2="244.9"/><polygon class="cls-9" points="203.17 247.39 198.85 244.9 203.17 242.41 203.17 247.39"/><polygon class="cls-9" points="212.54 247.39 216.86 244.9 212.54 242.41 212.54 247.39"/><text class="cls-6" transform="translate(100.96 164.75)">FPU / NEON / Crypto</text><rect class="cls-5" x="123.75" y="152.94" width="32.28" height="100.53" transform="translate(-63.31 343.1) rotate(-90)"/><text class="cls-6" transform="translate(98.96 205.66)">Debug /<tspan class="cls-10" x="28.02" y="0"> </tspan><tspan class="cls-11" x="30.1" y="0">T</tspan><tspan x="34.69" y="0">imers / MMU</tspan></text><rect class="cls-5" x="123.75" y="193.66" width="32.28" height="100.53" transform="translate(-104.03 383.82) rotate(-90)"/><text class="cls-6" transform="translate(102.73 242.38)">Level 1 Instruction &amp;<tspan x="15.12" y="9.6">Data Cache</tspan></text><text class="cls-6" transform="translate(89.39 75.9)">Cortex-A53 Core 0</text><rect class="cls-7" x="253.57" y="59.49" width="18.73" height="210.53"/><text class="cls-6" transform="translate(265.79 190.32) rotate(-90)">Level 2 Cache</text><line class="cls-8" x1="202.44" y1="203.21" x2="213.27" y2="203.21"/><polygon class="cls-9" points="203.17 205.7 198.85 203.21 203.17 200.71 203.17 205.7"/><polygon class="cls-9" points="212.54 205.7 216.86 203.21 212.54 200.71 212.54 205.7"/><line class="cls-8" x1="202.44" y1="162.3" x2="213.27" y2="162.3"/><polygon class="cls-9" points="203.17 164.79 198.85 162.3 203.17 159.81 203.17 164.79"/><polygon class="cls-9" points="212.54 164.79 216.86 162.3 212.54 159.81 212.54 164.79"/><line class="cls-8" x1="202.44" y1="121.39" x2="213.27" y2="121.39"/><polygon class="cls-9" points="203.17 123.89 198.85 121.39 203.17 118.9 203.17 123.89"/><polygon class="cls-9" points="212.54 123.89 216.86 121.39 212.54 118.9 212.54 123.89"/><line class="cls-8" x1="235.92" y1="178.44" x2="253.93" y2="178.44"/><rect class="cls-7" x="3.32" y="59.89" width="18.73" height="210.53"/><text class="cls-6" transform="translate(15.54 211.17) rotate(-90)">Snoop Control Unit (SCU)</text><line class="cls-8" x1="25.64" y1="244.9" x2="36.47" y2="244.9"/><polygon class="cls-9" points="26.36 247.39 22.05 244.9 26.36 242.41 26.36 247.39"/><polygon class="cls-9" points="35.74 247.39 40.05 244.9 35.74 242.41 35.74 247.39"/><line class="cls-8" x1="25.64" y1="203.21" x2="36.47" y2="203.21"/><polygon class="cls-9" points="26.36 205.7 22.05 203.21 26.36 200.71 26.36 205.7"/><polygon class="cls-9" points="35.74 205.7 40.05 203.21 35.74 200.71 35.74 205.7"/><line class="cls-8" x1="25.64" y1="162.3" x2="36.47" y2="162.3"/><polygon class="cls-9" points="26.36 164.79 22.05 162.3 26.36 159.81 26.36 164.79"/><polygon class="cls-9" points="35.74 164.79 40.05 162.3 35.74 159.81 35.74 164.79"/><line class="cls-8" x1="25.64" y1="121.39" x2="36.47" y2="121.39"/><polygon class="cls-9" points="26.36 123.89 22.05 121.39 26.36 118.9 26.36 123.89"/><polygon class="cls-9" points="35.74 123.89 40.05 121.39 35.74 118.9 35.74 123.89"/><line class="cls-8" x1="275.89" y1="203.21" x2="292.6" y2="203.21"/><polygon class="cls-9" points="276.62 205.7 272.3 203.21 276.62 200.71 276.62 205.7"/><polygon class="cls-9" points="291.87 205.7 296.18 203.21 291.87 200.71 291.87 205.7"/><line class="cls-8" x1="275.89" y1="162.3" x2="292.6" y2="162.3"/><polygon class="cls-9" points="276.62 164.79 272.3 162.3 276.62 159.81 276.62 164.79"/><polygon class="cls-9" points="291.87 164.79 296.18 162.3 291.87 159.81 291.87 164.79"/></svg>