<svg id="Layer_1" data-name="Layer 1" xmlns="http://www.w3.org/2000/svg" viewBox="0 0 430.9 274.18"><defs><style>.cls-1,.cls-3{fill:#fff;stroke:#9e1d20;}.cls-1,.cls-10,.cls-11,.cls-13,.cls-14,.cls-3,.cls-4,.cls-5,.cls-6,.cls-8{stroke-miterlimit:10;}.cls-1{stroke-width:0.5px;}.cls-2{fill:#988b90;}.cls-3,.cls-4{stroke-width:0.25px;}.cls-4{fill:#4258a6;}.cls-11,.cls-4{stroke:#231f20;}.cls-5{fill:#d0d2d3;stroke:#d0d2d3;}.cls-6{fill:#82b366;stroke:#82b366;}.cls-7{font-size:9px;fill:#231f20;font-family:ArialMT, Arial;}.cls-11,.cls-13,.cls-14,.cls-8{fill:none;}.cls-8{stroke:#2e3191;stroke-width:2px;}.cls-9{fill:#a77b49;opacity:0.51;}.cls-10{fill:#ea6b66;stroke:#fff;}.cls-12{fill:#c1b49a;opacity:0.61;}.cls-13{stroke:#754c28;stroke-width:3px;}.cls-14{stroke:#8a5d3b;stroke-width:8px;}</style></defs><rect class="cls-1" x="326.71" y="178.06" width="32.29" height="17.53"/><rect class="cls-1" x="326.69" y="114.04" width="32.29" height="13.97"/><rect class="cls-2" x="361.84" y="177.86" width="12.77" height="9.3"/><rect class="cls-2" x="361.84" y="118.71" width="10.44" height="9.3"/><rect class="cls-2" x="361.84" y="129.81" width="19.45" height="46.26"/><rect class="cls-3" x="410.93" y="12.04" width="4.35" height="7.87"/><rect class="cls-4" x="412.01" y="13.68" width="2.19" height="4.6"/><rect class="cls-2" x="416.01" y="12.04" width="4.36" height="7.87"/><rect class="cls-3" x="410.85" y="20.58" width="4.35" height="7.88"/><rect class="cls-4" x="411.93" y="22.23" width="2.19" height="4.59"/><rect class="cls-2" x="415.93" y="20.58" width="4.36" height="7.88"/><rect class="cls-3" x="410.85" y="29.11" width="4.35" height="7.87"/><rect class="cls-4" x="411.93" y="30.75" width="2.19" height="4.6"/><rect class="cls-2" x="415.93" y="29.11" width="4.36" height="7.87"/><rect class="cls-3" x="410.85" y="37.64" width="4.35" height="7.88"/><rect class="cls-4" x="411.93" y="39.29" width="2.19" height="4.59"/><rect class="cls-2" x="415.93" y="37.64" width="4.36" height="7.88"/><rect class="cls-3" x="410.85" y="46.35" width="4.35" height="7.88"/><rect class="cls-4" x="411.93" y="48" width="2.19" height="4.59"/><rect class="cls-2" x="415.93" y="46.35" width="4.36" height="7.88"/><rect class="cls-2" x="405.33" y="12.13" width="4.36" height="7.88"/><rect class="cls-2" x="405.26" y="20.68" width="4.36" height="7.88"/><rect class="cls-2" x="405.26" y="29.21" width="4.36" height="7.88"/><rect class="cls-2" x="405.26" y="37.74" width="4.36" height="7.88"/><rect class="cls-2" x="405.26" y="46.45" width="4.36" height="7.87"/><rect class="cls-3" x="421.46" y="12.04" width="4.36" height="7.87"/><rect class="cls-4" x="422.55" y="13.68" width="2.17" height="4.6"/><rect class="cls-2" x="426.54" y="12.04" width="4.36" height="7.87"/><rect class="cls-3" x="421.38" y="20.58" width="4.36" height="7.88"/><rect class="cls-4" x="422.48" y="22.23" width="2.17" height="4.59"/><rect class="cls-2" x="426.46" y="20.58" width="4.36" height="7.88"/><rect class="cls-3" x="421.38" y="29.11" width="4.36" height="7.87"/><rect class="cls-4" x="422.48" y="30.75" width="2.17" height="4.59"/><rect class="cls-2" x="426.46" y="29.11" width="4.36" height="7.87"/><rect class="cls-3" x="421.38" y="37.64" width="4.36" height="7.88"/><rect class="cls-4" x="422.48" y="39.28" width="2.17" height="4.59"/><rect class="cls-2" x="426.46" y="37.64" width="4.36" height="7.88"/><rect class="cls-3" x="421.38" y="46.35" width="4.36" height="7.88"/><rect class="cls-4" x="422.48" y="48" width="2.17" height="4.59"/><rect class="cls-2" x="426.46" y="46.35" width="4.36" height="7.88"/><rect class="cls-5" x="45.79" y="141.7" width="102.05" height="22.68"/><rect class="cls-6" x="179.43" y="63.36" width="14.17" height="14.17"/><text class="cls-7" transform="translate(181.02 72.9)">FF</text><rect class="cls-6" x="179.43" y="122.89" width="14.17" height="14.17"/><text class="cls-7" transform="translate(181.02 132.43)">FF</text><rect class="cls-6" x="179.43" y="103.04" width="14.17" height="14.17"/><text class="cls-7" transform="translate(181.02 112.58)">FF</text><rect class="cls-6" x="179.43" y="83.2" width="14.17" height="14.17"/><text class="cls-7" transform="translate(181.02 92.74)">FF</text><rect class="cls-6" x="160.27" y="63.36" width="14.17" height="14.17"/><text class="cls-7" transform="translate(161.85 72.9)">FF</text><rect class="cls-6" x="160.27" y="122.89" width="14.17" height="14.17"/><text class="cls-7" transform="translate(161.85 132.43)">FF</text><rect class="cls-6" x="160.27" y="103.04" width="14.17" height="14.17"/><text class="cls-7" transform="translate(161.85 112.58)">FF</text><rect class="cls-6" x="160.27" y="83.2" width="14.17" height="14.17"/><text class="cls-7" transform="translate(161.85 92.74)">FF</text><rect class="cls-6" x="160.27" y="168.71" width="14.17" height="14.17"/><text class="cls-7" transform="translate(161.86 178.25)">FF</text><rect class="cls-6" x="160.27" y="228.23" width="14.17" height="14.17"/><text class="cls-7" transform="translate(161.86 237.78)">FF</text><rect class="cls-6" x="160.27" y="208.39" width="14.17" height="14.17"/><text class="cls-7" transform="translate(161.86 217.93)">FF</text><rect class="cls-6" x="160.27" y="188.55" width="14.17" height="14.17"/><text class="cls-7" transform="translate(161.86 198.09)">FF</text><rect class="cls-6" x="179.45" y="168.66" width="14.17" height="14.17"/><text class="cls-7" transform="translate(181.03 178.21)">FF</text><rect class="cls-6" x="179.45" y="228.19" width="14.17" height="14.17"/><text class="cls-7" transform="translate(181.03 237.73)">FF</text><rect class="cls-6" x="179.45" y="208.35" width="14.17" height="14.17"/><text class="cls-7" transform="translate(181.03 217.89)">FF</text><rect class="cls-6" x="179.45" y="188.51" width="14.17" height="14.17"/><text class="cls-7" transform="translate(181.03 198.05)">FF</text><text class="cls-7" transform="translate(72.8 150.62)">Carry Chain<tspan x="-18.01" y="10.8">(Vertical Connection)</tspan></text><rect class="cls-8" x="1.95" y="32.68" width="197.5" height="240.5"/><polygon class="cls-9" points="321.09 130.82 321.09 177.05 210.41 272.68 210.41 33.18 321.09 130.82"/><rect class="cls-10" x="8.94" y="37.68" width="22.67" height="22.68"/><text class="cls-7" transform="translate(12.14 51.48)">LUT</text><rect class="cls-10" x="8.94" y="114.22" width="22.67" height="22.68"/><text class="cls-7" transform="translate(12.14 128.01)">LUT</text><rect class="cls-10" x="8.94" y="63.2" width="22.67" height="22.68"/><text class="cls-7" transform="translate(12.14 76.99)">LUT</text><rect class="cls-10" x="8.94" y="88.71" width="22.67" height="22.68"/><text class="cls-7" transform="translate(12.15 102.5)">LUT</text><polyline class="cls-11" points="65.08 194.63 65.08 186.2 53.4 180.22 53.4 200.35 65.08 194.4"/><line class="cls-11" x1="53.4" y1="185.69" x2="47.42" y2="185.69"/><line class="cls-11" x1="53.4" y1="194.52" x2="47.42" y2="194.52"/><line class="cls-11" x1="65.08" y1="190.29" x2="70.06" y2="190.29"/><line class="cls-11" x1="59.85" y1="197.07" x2="59.85" y2="202.46"/><polyline class="cls-11" points="98.37 223.02 98.37 214.59 86.69 208.61 86.69 228.74 98.37 222.79"/><line class="cls-11" x1="86.69" y1="214.08" x2="80.71" y2="214.08"/><line class="cls-11" x1="86.69" y1="222.91" x2="80.71" y2="222.91"/><line class="cls-11" x1="98.37" y1="218.68" x2="103.35" y2="218.68"/><line class="cls-11" x1="93.14" y1="225.45" x2="93.14" y2="230.85"/><polyline class="cls-11" points="65.58 246.88 65.58 238.44 53.9 232.47 53.9 252.59 65.58 246.65"/><line class="cls-11" x1="53.9" y1="237.94" x2="47.92" y2="237.94"/><line class="cls-11" x1="53.9" y1="246.77" x2="47.92" y2="246.77"/><line class="cls-11" x1="65.58" y1="242.53" x2="70.56" y2="242.53"/><line class="cls-11" x1="60.35" y1="249.31" x2="60.35" y2="254.7"/><polyline class="cls-11" points="64.58 66.65 64.58 58.21 52.9 52.24 52.9 72.36 64.58 66.42"/><line class="cls-11" x1="52.9" y1="57.71" x2="46.92" y2="57.71"/><line class="cls-11" x1="52.9" y1="66.54" x2="46.92" y2="66.54"/><line class="cls-11" x1="64.58" y1="62.3" x2="69.56" y2="62.3"/><line class="cls-11" x1="59.35" y1="69.08" x2="59.35" y2="74.47"/><polyline class="cls-11" points="97.87 92.39 97.87 83.96 86.19 77.98 86.19 98.11 97.87 92.16"/><line class="cls-11" x1="86.19" y1="83.45" x2="80.21" y2="83.45"/><line class="cls-11" x1="86.19" y1="92.28" x2="80.21" y2="92.28"/><line class="cls-11" x1="97.87" y1="88.05" x2="102.85" y2="88.05"/><line class="cls-11" x1="92.64" y1="94.83" x2="92.64" y2="100.22"/><polyline class="cls-11" points="64.58 117.67 64.58 109.24 52.9 103.27 52.9 123.39 64.58 117.44"/><line class="cls-11" x1="52.9" y1="108.73" x2="46.92" y2="108.73"/><line class="cls-11" x1="52.9" y1="117.56" x2="46.92" y2="117.56"/><line class="cls-11" x1="64.58" y1="113.33" x2="69.55" y2="113.33"/><line class="cls-11" x1="59.35" y1="120.11" x2="59.35" y2="125.5"/><polyline class="cls-11" points="123.1 128.79 123.1 120.35 111.42 114.38 111.42 134.51 123.1 128.56"/><line class="cls-11" x1="111.42" y1="119.85" x2="105.44" y2="119.85"/><line class="cls-11" x1="111.42" y1="128.68" x2="105.44" y2="128.68"/><line class="cls-11" x1="123.1" y1="124.44" x2="128.08" y2="124.44"/><line class="cls-11" x1="117.87" y1="131.22" x2="117.87" y2="136.61"/><rect class="cls-10" x="8.94" y="168.28" width="22.67" height="22.68"/><text class="cls-7" transform="translate(12.14 182.08)">LUT</text><rect class="cls-10" x="8.94" y="244.82" width="22.67" height="22.68"/><text class="cls-7" transform="translate(12.14 258.61)">LUT</text><rect class="cls-10" x="8.94" y="193.8" width="22.67" height="22.68"/><text class="cls-7" transform="translate(12.14 207.59)">LUT</text><rect class="cls-10" x="8.94" y="219.31" width="22.67" height="22.68"/><text class="cls-7" transform="translate(12.14 233.1)">LUT</text><rect class="cls-1" x="326.71" y="129.81" width="32.29" height="46.46"/><rect class="cls-4" x="334.8" y="139.59" width="16.08" height="27"/><text class="cls-7" transform="translate(373.41 7.72)">Logic Fabric</text><rect class="cls-3" x="380.21" y="12.13" width="4.35" height="7.87"/><rect class="cls-4" x="381.29" y="13.77" width="2.19" height="4.6"/><rect class="cls-2" x="385.29" y="12.13" width="4.36" height="7.87"/><rect class="cls-3" x="380.13" y="20.68" width="4.35" height="7.88"/><rect class="cls-4" x="381.21" y="22.32" width="2.19" height="4.59"/><rect class="cls-2" x="385.21" y="20.68" width="4.36" height="7.88"/><rect class="cls-3" x="380.13" y="29.21" width="4.35" height="7.87"/><rect class="cls-4" x="381.21" y="30.85" width="2.19" height="4.6"/><rect class="cls-2" x="385.21" y="29.21" width="4.36" height="7.87"/><rect class="cls-3" x="380.13" y="37.74" width="4.35" height="7.88"/><rect class="cls-4" x="381.21" y="39.38" width="2.19" height="4.59"/><rect class="cls-2" x="385.21" y="37.74" width="4.36" height="7.88"/><rect class="cls-3" x="380.13" y="46.45" width="4.35" height="7.88"/><rect class="cls-4" x="381.21" y="48.09" width="2.19" height="4.59"/><rect class="cls-2" x="385.21" y="46.45" width="4.36" height="7.88"/><rect class="cls-2" x="374.61" y="12.23" width="4.36" height="7.88"/><rect class="cls-2" x="374.54" y="20.78" width="4.36" height="7.88"/><rect class="cls-2" x="374.54" y="29.3" width="4.36" height="7.88"/><rect class="cls-2" x="374.54" y="37.84" width="4.36" height="7.88"/><rect class="cls-2" x="374.54" y="46.55" width="4.36" height="7.87"/><rect class="cls-3" x="390.74" y="12.13" width="4.36" height="7.87"/><rect class="cls-4" x="391.83" y="13.77" width="2.17" height="4.6"/><rect class="cls-2" x="395.82" y="12.13" width="4.36" height="7.87"/><rect class="cls-3" x="390.66" y="20.68" width="4.36" height="7.88"/><rect class="cls-4" x="391.76" y="22.32" width="2.17" height="4.59"/><rect class="cls-2" x="395.74" y="20.68" width="4.36" height="7.88"/><rect class="cls-3" x="390.66" y="29.21" width="4.36" height="7.87"/><rect class="cls-4" x="391.76" y="30.85" width="2.17" height="4.59"/><rect class="cls-2" x="395.74" y="29.21" width="4.36" height="7.87"/><rect class="cls-3" x="390.66" y="37.74" width="4.36" height="7.88"/><rect class="cls-4" x="391.76" y="39.38" width="2.17" height="4.59"/><rect class="cls-2" x="395.74" y="37.74" width="4.36" height="7.88"/><rect class="cls-3" x="390.66" y="46.45" width="4.36" height="7.88"/><rect class="cls-4" x="391.76" y="48.09" width="2.17" height="4.59"/><rect class="cls-2" x="395.74" y="46.45" width="4.36" height="7.88"/><rect class="cls-3" x="400.58" y="11.95" width="4.35" height="7.87"/><rect class="cls-4" x="401.66" y="13.59" width="2.19" height="4.6"/><rect class="cls-3" x="400.51" y="20.5" width="4.35" height="7.88"/><rect class="cls-4" x="401.59" y="22.14" width="2.19" height="4.59"/><rect class="cls-3" x="400.51" y="29.03" width="4.35" height="7.87"/><rect class="cls-4" x="401.59" y="30.67" width="2.19" height="4.6"/><rect class="cls-3" x="400.51" y="37.56" width="4.35" height="7.88"/><rect class="cls-4" x="401.59" y="39.2" width="2.19" height="4.59"/><rect class="cls-3" x="400.51" y="46.27" width="4.35" height="7.88"/><rect class="cls-4" x="401.59" y="47.91" width="2.19" height="4.59"/><path class="cls-12" d="M427.26,46.57c-.64,1.37-1,2.81-1.52,4.21a4.83,4.83,0,0,1-2.69,3c-1.2.69-2.62,2.06-3.86,2.51-2.46.88-6.71-.12-8.85-1.26-6.26-3.34-8.49-10.9-5.07-17.61L315.42,120.1c3.8.54,7.82-2.3,11.29-3.5s7.06-2.85,10.72-3.86,7.26-2.34,11.26-2.12,8.65-.31,12.22,1,7.4,3.91,10.7,6.17c4,2.72,6.35,6.16,9.08,10.13a42.55,42.55,0,0,1,5.09,9.63,30.52,30.52,0,0,1,1.8,5.45c.42,2.27.57,4.5,1.19,6.76a37.49,37.49,0,0,1,1.33,12.14c-.11,2-.21,4-.14,6,.06,1.55.58,4.68-1.12,5.34l.14.16L427.36,45.9" transform="translate(-2.87 -2.46)"/><path class="cls-13" d="M427.76,44.22a12.11,12.11,0,1,1-12.11-12.11A12.11,12.11,0,0,1,427.76,44.22Z" transform="translate(-2.87 -2.46)"/><text class="cls-7" transform="translate(0 24.72)">Configurable Logic Block (CLB)</text><path class="cls-14" d="M388.27,156.18a43.61,43.61,0,1,1-43.6-43.61A43.6,43.6,0,0,1,388.27,156.18Z" transform="translate(-2.87 -2.46)"/></svg>