<svg id="Layer_1" data-name="Layer 1" xmlns="http://www.w3.org/2000/svg" viewBox="0 0 689.36 355.5"><defs><style>.cls-1{fill:#652d90;}.cls-2{fill:#f1f1f2;stroke:#262261;}.cls-10,.cls-11,.cls-12,.cls-13,.cls-14,.cls-15,.cls-16,.cls-17,.cls-2,.cls-20,.cls-4,.cls-5,.cls-6,.cls-8,.cls-9{stroke-miterlimit:10;}.cls-10,.cls-2,.cls-5{stroke-width:2px;}.cls-3{font-size:13px;}.cls-12,.cls-17,.cls-18,.cls-3,.cls-7{fill:#231f20;}.cls-18,.cls-21,.cls-3{font-family:ArialMT, Arial;}.cls-4{fill:#8bc53f;stroke:#8bc53f;}.cls-5{fill:#37b34a;}.cls-10,.cls-12,.cls-13,.cls-16,.cls-17,.cls-5,.cls-6,.cls-8{stroke:#231f20;}.cls-10,.cls-13,.cls-20,.cls-6{fill:none;}.cls-8{fill:#fff;}.cls-9{fill:#faf184;stroke:#a6a8ab;}.cls-11{fill:#6fcbdc;stroke:#6fcbdc;}.cls-13,.cls-16,.cls-17{stroke-width:1.5px;}.cls-14{fill:#faaf40;stroke:#faaf40;}.cls-15{fill:#ef64a4;stroke:#ef64a4;}.cls-16{fill:#d91c5c;}.cls-18,.cls-19,.cls-21{font-size:16px;}.cls-19{fill:#262261;font-family:Arial-BoldMT, Arial;font-weight:700;}.cls-20{stroke:#ec1c24;stroke-width:1.4px;}.cls-21{fill:#ec1c24;}</style></defs><path class="cls-1" d="M34.38,79.91a5.67,5.67,0,1,0,5.67-5.67A5.66,5.66,0,0,0,34.38,79.91Z" transform="translate(-7.9 -6.18)"/><rect class="cls-1" x="32.15" y="68.06" width="5.67" height="11.34"/><path class="cls-1" d="M34.38,173.88a5.67,5.67,0,1,0,5.67-5.67A5.67,5.67,0,0,0,34.38,173.88Z" transform="translate(-7.9 -6.18)"/><rect class="cls-1" x="32.15" y="162.03" width="5.67" height="11.34"/><path class="cls-1" d="M34.38,227.35a5.67,5.67,0,1,0,5.67-5.67A5.67,5.67,0,0,0,34.38,227.35Z" transform="translate(-7.9 -6.18)"/><rect class="cls-1" x="32.15" y="215.5" width="5.67" height="11.34"/><path class="cls-1" d="M34.38,273.26a5.67,5.67,0,1,0,5.67-5.67A5.67,5.67,0,0,0,34.38,273.26Z" transform="translate(-7.9 -6.18)"/><rect class="cls-1" x="32.15" y="261.41" width="5.67" height="11.34"/><path class="cls-1" d="M627.87,233.54a5.67,5.67,0,1,0-5.67,5.67A5.67,5.67,0,0,0,627.87,233.54Z" transform="translate(-7.9 -6.18)"/><rect class="cls-1" x="608.63" y="221.69" width="5.67" height="11.34"/><path class="cls-1" d="M627.87,165.84a5.67,5.67,0,1,0-5.67,5.67A5.67,5.67,0,0,0,627.87,165.84Z" transform="translate(-7.9 -6.18)"/><rect class="cls-1" x="608.63" y="153.99" width="5.67" height="11.34"/><path class="cls-1" d="M627.87,93.87a5.67,5.67,0,1,0-5.67,5.67A5.67,5.67,0,0,0,627.87,93.87Z" transform="translate(-7.9 -6.18)"/><rect class="cls-1" x="608.63" y="82.02" width="5.67" height="11.34"/><rect class="cls-2" x="37.82" y="1" width="570.81" height="353.5"/><text class="cls-3" transform="translate(153.55 250.38)">Pre-adder</text><text class="cls-3" transform="translate(285.73 189.35)">27 x 18<tspan x="-4.68" y="15.6">Multiplier</tspan></text><text class="cls-3" transform="translate(497.75 269.21)">Pattern<tspan x="-3.61" y="15.6">Detector</tspan></text><path class="cls-4" d="M165.8,216.45a24,24,0,1,0,24-24A24,24,0,0,0,165.8,216.45Z" transform="translate(-7.9 -6.18)"/><line class="cls-5" x1="170.74" y1="203.89" x2="170.74" y2="217.44"/><line class="cls-5" x1="163.96" y1="210.66" x2="177.52" y2="210.66"/><line class="cls-5" x1="186.28" y1="210.66" x2="199.84" y2="210.66"/><line class="cls-5" x1="185.73" y1="199.36" x2="179.18" y2="221.17"/><line class="cls-6" x1="152.64" y1="221.17" x2="37.82" y2="221.17"/><polygon class="cls-7" points="151.18 216.21 159.82 221.2 151.18 226.19 151.18 216.21"/><line class="cls-6" x1="152.64" y1="199.36" x2="140.3" y2="199.36"/><polygon class="cls-7" points="151.18 194.41 159.82 199.39 151.18 204.38 151.18 194.41"/><polyline class="cls-8" points="130.21 161.23 130.21 137.71 113.89 121.39 113.89 177.39 130.3 160.98"/><path class="cls-9" d="M291,156.61a24,24,0,1,0,24-24A24,24,0,0,0,291,156.61Z" transform="translate(-7.9 -6.18)"/><line class="cls-10" x1="313.83" y1="143.65" x2="300.27" y2="157.21"/><line class="cls-10" x1="300.27" y1="143.65" x2="313.83" y2="157.21"/><polyline class="cls-8" points="387.85 293.92 387.85 270.4 371.53 254.08 371.53 310.08 387.94 293.67"/><polyline class="cls-8" points="254.78 101.2 254.78 77.68 238.46 61.36 238.46 117.36 254.88 100.95"/><path class="cls-11" d="M424.81,165.84a24,24,0,1,0,24-24A24,24,0,0,0,424.81,165.84Z" transform="translate(-7.9 -6.18)"/><line class="cls-10" x1="429.54" y1="145.07" x2="429.54" y2="158.63"/><line class="cls-10" x1="422.76" y1="151.85" x2="436.32" y2="151.85"/><line class="cls-10" x1="447.02" y1="151.85" x2="459.04" y2="151.85"/><path class="cls-12" d="M450.62,174.34h-7.48V183h7.48c2.07,0,3.74-1.95,3.74-4.35S452.69,174.34,450.62,174.34Z" transform="translate(-7.9 -6.18)"/><line class="cls-13" x1="435.23" y1="170.12" x2="429.27" y2="170.12"/><line class="cls-13" x1="435.23" y1="174.79" x2="429.27" y2="174.79"/><line class="cls-13" x1="446.46" y1="172.5" x2="451.5" y2="172.5"/><line class="cls-6" x1="440.91" y1="139.25" x2="440.91" y2="158.63"/><line class="cls-6" x1="440.91" y1="158.63" x2="459.04" y2="169.17"/><line class="cls-6" x1="440.91" y1="158.63" x2="422.78" y2="169.17"/><line class="cls-6" x1="140.3" y1="199.36" x2="140.3" y2="149.39"/><line class="cls-6" x1="231.29" y1="73.73" x2="37.82" y2="73.73"/><polygon class="cls-7" points="229.83 68.77 238.46 73.75 229.83 78.74 229.83 68.77"/><line class="cls-6" x1="277.75" y1="139.54" x2="265.11" y2="139.54"/><polygon class="cls-7" points="276.29 134.58 284.93 139.57 276.29 144.56 276.29 134.58"/><line class="cls-6" x1="265.11" y1="139.54" x2="265.11" y2="89.57"/><line class="cls-6" x1="265.11" y1="89.57" x2="254.88" y2="89.57"/><line class="cls-6" x1="277.75" y1="161.26" x2="265.11" y2="161.26"/><polygon class="cls-7" points="276.29 156.31 284.93 161.29 276.29 166.28 276.29 156.31"/><line class="cls-6" x1="265.11" y1="161.26" x2="265.11" y2="210.65"/><line class="cls-6" x1="265.11" y1="210.87" x2="205.9" y2="210.87"/><line class="cls-6" x1="95.63" y1="131.7" x2="95.63" y2="73.73"/><line class="cls-6" x1="106.71" y1="131.7" x2="95.79" y2="131.7"/><polygon class="cls-7" points="105.25 126.74 113.89 131.73 105.25 136.71 105.25 126.74"/><line class="cls-6" x1="106.71" y1="167.7" x2="37.82" y2="167.7"/><polygon class="cls-7" points="105.25 162.74 113.89 167.73 105.25 172.71 105.25 162.74"/><line class="cls-6" x1="231.29" y1="106.06" x2="218.65" y2="106.06"/><polygon class="cls-7" points="229.83 101.1 238.46 106.08 229.83 111.07 229.83 101.1"/><line class="cls-6" x1="218.65" y1="106.06" x2="218.65" y2="210.04"/><path class="cls-12" d="M101.41,80a2.13,2.13,0,1,0,2.12-2.12A2.12,2.12,0,0,0,101.41,80Z" transform="translate(-7.9 -6.18)"/><path class="cls-12" d="M224.42,217a2.13,2.13,0,1,0,2.13-2.13A2.14,2.14,0,0,0,224.42,217Z" transform="translate(-7.9 -6.18)"/><line class="cls-6" x1="140.3" y1="149.39" x2="130.07" y2="149.39"/><line class="cls-6" x1="411.09" y1="150.43" x2="331.05" y2="150.43"/><polygon class="cls-7" points="409.64 145.47 418.27 150.46 409.64 155.44 409.64 145.47"/><line class="cls-6" x1="364.35" y1="267.08" x2="37.82" y2="267.08"/><polygon class="cls-7" points="362.89 262.13 371.53 267.11 362.89 272.1 362.89 262.13"/><line class="cls-6" x1="398.18" y1="282.08" x2="387.94" y2="282.08"/><line class="cls-6" x1="411.09" y1="168.52" x2="398.46" y2="168.52"/><polygon class="cls-7" points="409.64 163.56 418.27 168.55 409.64 173.54 409.64 163.56"/><line class="cls-6" x1="398.46" y1="168.52" x2="398.46" y2="282.08"/><polyline class="cls-14" points="537.82 239.2 537.82 215.68 499.36 199.36 499.36 255.36 538.04 238.95"/><line class="cls-6" x1="331.05" y1="242.49" x2="331.05" y2="267.18"/><line class="cls-6" x1="492.18" y1="242.49" x2="331.05" y2="242.49"/><polygon class="cls-7" points="490.73 237.54 499.36 242.52 490.73 247.51 490.73 237.54"/><circle class="cls-12" cx="331.05" cy="267.08" r="2.13"/><line class="cls-6" x1="492.18" y1="212.28" x2="440.84" y2="212.28"/><polygon class="cls-7" points="490.73 207.32 499.36 212.31 490.73 217.29 490.73 207.32"/><line class="cls-6" x1="440.91" y1="183.66" x2="440.91" y2="212.28"/><line class="cls-10" x1="511.34" y1="224.8" x2="526.83" y2="224.8"/><line class="cls-10" x1="511.39" y1="229.92" x2="526.88" y2="229.92"/><line class="cls-6" x1="601.45" y1="227.36" x2="538.04" y2="227.36"/><polygon class="cls-7" points="599.99 222.41 608.63 227.39 599.99 232.38 599.99 222.41"/><line class="cls-6" x1="601.45" y1="159.66" x2="464.91" y2="159.66"/><polygon class="cls-7" points="599.99 154.7 608.63 159.69 599.99 164.67 599.99 154.7"/><path class="cls-15" d="M502.64,94.23a24,24,0,1,0,24-24A24,24,0,0,0,502.64,94.23Z" transform="translate(-7.9 -6.18)"/><line class="cls-16" x1="510.8" y1="80.37" x2="518.77" y2="80.37"/><path class="cls-16" d="M521.64,94.28a5.92,5.92,0,0,0-5.9-6" transform="translate(-7.9 -6.18)"/><path class="cls-16" d="M521.64,94.28a5.92,5.92,0,0,1-5.9,6" transform="translate(-7.9 -6.18)"/><path class="cls-17" d="M526.68,86.55c5.57,0,10.08,3.44,10.08,7.69s-4.51,7.68-10.08,7.68H518c3.61,0,6.53-3.44,6.53-7.68s-2.79-7.69-6.23-7.69" transform="translate(-7.9 -6.18)"/><line class="cls-16" x1="512.94" y1="84.75" x2="502.82" y2="84.75"/><line class="cls-16" x1="512.94" y1="91.37" x2="502.82" y2="91.37"/><line class="cls-16" x1="528.85" y1="87.69" x2="534.65" y2="87.69"/><line class="cls-6" x1="487.56" y1="89.08" x2="440.84" y2="89.08"/><polygon class="cls-7" points="486.1 84.12 494.74 89.11 486.1 94.1 486.1 84.12"/><line class="cls-6" x1="440.91" y1="135.7" x2="440.91" y2="89.08"/><line class="cls-6" x1="601.45" y1="87.69" x2="542.74" y2="87.69"/><polygon class="cls-7" points="599.99 82.73 608.63 87.72 599.99 92.7 599.99 82.73"/><line class="cls-6" x1="331.05" y1="300.49" x2="331.05" y2="325.19"/><line class="cls-6" x1="556.78" y1="325.19" x2="459.36" y2="325.19"/><polygon class="cls-7" points="460.82 320.23 452.18 325.21 460.82 330.2 460.82 320.23"/><line class="cls-6" x1="556.78" y1="160.07" x2="556.78" y2="325.18"/><line class="cls-6" x1="364.35" y1="300.49" x2="331.05" y2="300.49"/><polygon class="cls-7" points="362.89 295.54 371.53 300.52 362.89 305.51 362.89 295.54"/><path class="cls-12" d="M562.55,165.83a2.13,2.13,0,1,0,2.13-2.12A2.13,2.13,0,0,0,562.55,165.83Z" transform="translate(-7.9 -6.18)"/><text class="cls-18" transform="translate(0.44 78.58)">B</text><text class="cls-19" transform="translate(48.8 24.5)">DSP48E2 Slice</text><text class="cls-18" transform="translate(0.44 173.37)">A</text><text class="cls-18" transform="translate(0 226.84)">D</text><text class="cls-18" transform="translate(0 272.75)">C</text><text class="cls-18" transform="translate(637.78 93.36)">XOR</text><text class="cls-18" transform="translate(637.78 165.33)">P</text><text class="cls-18" transform="translate(637.78 221.69)">Pattern<tspan x="0" y="19.2">Detect</tspan></text><line class="cls-20" x1="77.09" y1="65.35" x2="60.08" y2="82.36"/><text class="cls-21" transform="translate(58.45 61.36)">18</text><line class="cls-20" x1="77.09" y1="158.82" x2="60.08" y2="175.82"/><text class="cls-21" transform="translate(58.45 154.83)">30</text><line class="cls-20" x1="77.09" y1="212.72" x2="60.08" y2="229.73"/><text class="cls-21" transform="translate(58.45 208.74)">27</text><line class="cls-20" x1="75.85" y1="258.93" x2="58.84" y2="275.94"/><text class="cls-21" transform="translate(58.45 254.94)">48</text><line class="cls-20" x1="376.8" y1="142.88" x2="359.79" y2="159.89"/><text class="cls-21" transform="translate(359.4 138.9)">45</text><line class="cls-20" x1="527.59" y1="151.15" x2="510.58" y2="168.16"/><text class="cls-21" transform="translate(509.8 147.94)">48</text><line class="cls-20" x1="252.51" y1="203.76" x2="235.51" y2="220.77"/><text class="cls-21" transform="translate(235.11 199.77)">27</text><rect class="cls-8" x="429.5" y="308.18" width="22.68" height="34.02"/><polyline class="cls-6" points="429.57 340.34 437.78 334.13 429.5 327.87"/><line class="cls-6" x1="429.8" y1="325.19" x2="331.05" y2="325.19"/><text class="cls-3" transform="translate(341.7 102.71)">Arithmetic Logic<tspan x="15.9" y="15.6">Unit (ALU)</tspan></text><line class="cls-20" x1="586.34" y1="218.95" x2="569.33" y2="235.96"/><text class="cls-21" transform="translate(568.56 215.74)">48</text></svg>