<svg id="Layer_1" data-name="Layer 1" xmlns="http://www.w3.org/2000/svg" viewBox="0 0 253.97 263.43"><defs><style>.cls-1,.cls-10,.cls-7{fill:#fff;}.cls-2{fill:#6c8ebf;}.cls-10,.cls-2,.cls-3,.cls-5,.cls-6{stroke:#1d1d1b;}.cls-10,.cls-2,.cls-3,.cls-5,.cls-6,.cls-7{stroke-miterlimit:10;}.cls-3{fill:none;}.cls-11,.cls-4,.cls-8{fill:#1d1d1b;}.cls-5,.cls-6{fill:#d9d9d9;}.cls-5{opacity:0.5;}.cls-7{stroke:#6c8ebf;}.cls-8{font-size:7.38px;}.cls-11,.cls-8{font-family:ArialMT, Arial;}.cls-9{letter-spacing:-0.04em;}.cls-11{font-size:8px;}</style></defs><rect class="cls-1" width="253.97" height="263.43"/><rect class="cls-2" x="-27.26" y="36.74" width="254.58" height="189.68" transform="translate(-31.55 231.61) rotate(-90)"/><line class="cls-3" x1="174.44" y1="101.79" x2="209.29" y2="101.79"/><polygon class="cls-4" points="208.56 104.28 212.88 101.79 208.56 99.29 208.56 104.28"/><line class="cls-3" x1="178.02" y1="85.65" x2="212.88" y2="85.65"/><polygon class="cls-4" points="178.75 88.14 174.44 85.64 178.75 83.15 178.75 88.14"/><rect class="cls-5" x="10.55" y="78.56" width="210.53" height="117.24" transform="translate(-21.37 253) rotate(-90)"/><rect class="cls-6" x="19.64" y="86.6" width="210.53" height="118.7" transform="translate(-21.05 270.85) rotate(-90)"/><rect class="cls-7" x="99.17" y="83.89" width="50" height="100" transform="translate(-9.72 258.06) rotate(-90)"/><text class="cls-8" transform="translate(10.56 14.86) scale(1.08 1)">Real-<tspan class="cls-9" x="17.62" y="0">T</tspan><tspan x="21.86" y="0">ime</tspan><tspan x="0" y="8.85">Processing Unit</tspan></text><rect class="cls-10" x="212.6" y="40.69" width="18.73" height="210.53"/><text class="cls-11" transform="translate(224.82 178.63) rotate(-90)">Low Power Switch</text><rect class="cls-7" x="108.03" y="131.87" width="32.28" height="100.53" transform="translate(-57.97 306.31) rotate(-90)"/><text class="cls-11" transform="translate(105.52 131.44)">Cortex-R5<tspan x="0.22" y="9.6">Processor</tspan></text><line class="cls-3" x1="184.25" y1="193.25" x2="209.29" y2="193.25"/><polygon class="cls-4" points="208.56 195.75 212.88 193.25 208.56 190.76 208.56 195.75"/><text class="cls-11" transform="translate(90.36 184.59)">TCM RAMs / MPU</text><text class="cls-11" transform="translate(73.9 58.37)">Cortex-R5 Core 0</text><line class="cls-3" x1="187.84" y1="178.06" x2="212.88" y2="178.06"/><polygon class="cls-4" points="188.57 180.56 184.25 178.06 188.57 175.57 188.57 180.56"/><rect class="cls-10" x="10.56" y="40.69" width="18.73" height="210.53"/><text class="cls-11" transform="translate(22.78 205.3) rotate(-90)">Generic Interrupt Controller (GIC)</text><line class="cls-3" x1="32.88" y1="221.53" x2="61.96" y2="221.53"/><polygon class="cls-4" points="33.61 224.02 29.29 221.53 33.61 219.03 33.61 224.02"/><polygon class="cls-4" points="61.23 224.02 65.55 221.53 61.23 219.03 61.23 224.02"/><line class="cls-3" x1="32.88" y1="85.65" x2="53.38" y2="85.65"/><polygon class="cls-4" points="33.61 88.14 29.29 85.64 33.61 83.15 33.61 88.14"/><polygon class="cls-4" points="52.65 88.14 56.96 85.64 52.65 83.15 52.65 88.14"/><rect class="cls-7" x="108.03" y="35.38" width="32.28" height="100.53" transform="translate(38.52 209.81) rotate(-90)"/><text class="cls-11" transform="translate(100.79 83.1)">Low Latency<tspan x="-4.22" y="9.6">Peripheral Port</tspan></text><rect class="cls-7" x="108.03" y="171.26" width="32.28" height="100.53" transform="translate(-97.36 345.7) rotate(-90)"/><text/><text class="cls-11" transform="translate(87.51 219.98)">Level 1 Instruction &amp;<tspan x="15.12" y="9.6">Data Cache</tspan></text><line class="cls-3" x1="231.94" y1="147.72" x2="246.36" y2="147.72"/><polygon class="cls-4" points="245.63 150.22 249.95 147.72 245.63 145.23 245.63 150.22"/><line class="cls-3" x1="235.53" y1="131.58" x2="249.95" y2="131.58"/><polygon class="cls-4" points="236.26 134.07 231.94 131.58 236.26 129.09 236.26 134.07"/></svg>