<?xml version="1.0" encoding="utf-8"?>
<!-- Generator: Adobe Illustrator 24.2.1, SVG Export Plug-In . SVG Version: 6.00 Build 0)  -->
<svg version="1.1" id="Layer_1" xmlns="http://www.w3.org/2000/svg" xmlns:xlink="http://www.w3.org/1999/xlink" x="0px" y="0px"
	 viewBox="0 0 558 158.3" style="enable-background:new 0 0 558 158.3;" xml:space="preserve">
<style type="text/css">
	.st0{fill:#D9D9D9;stroke:#1D1D1B;stroke-miterlimit:10;}
	.st1{fill:#D0D2D3;stroke:#231F20;stroke-miterlimit:10;}
	.st2{fill:none;stroke:#D6B656;stroke-width:2;stroke-miterlimit:10;}
	.st3{fill:#231F20;}
	.st4{font-family:'ArialMT';}
	.st5{font-size:9px;}
	.st6{fill:none;stroke:#000000;stroke-miterlimit:10;}
	.st7{fill:none;stroke:#000000;stroke-miterlimit:10;stroke-dasharray:5.89,5.89;}
	.st8{fill:#1D1D1B;}
	.st9{fill:#FFFFFF;stroke:#1D1D1B;stroke-miterlimit:10;}
	.st10{fill:none;stroke:#1D1D1B;stroke-miterlimit:10;}
	.st11{fill:none;}
	.st12{fill:none;stroke:#82B366;stroke-width:2;stroke-miterlimit:10;}
	.st13{font-family:'Arial-BoldMT';}
</style>
<rect x="250.7" y="27.4" class="st0" width="232.9" height="105.8"/>
<rect x="30" y="49.4" class="st1" width="127.1" height="81.1"/>
<rect x="1" y="1" class="st2" width="185.3" height="156.3"/>
<text transform="matrix(1 0 0 1 9.69 18.63)" class="st3 st4 st5">Programmable Logic</text>
<text transform="matrix(1 0 0 1 41.07 93.38)" class="st3 st4 st5">Receive samples</text>
<text transform="matrix(1 0 0 1 48.33 104.18)" class="st3 st4 st5">from RF ADC</text>
<line class="st6" x1="205.1" y1="4.7" x2="205.1" y2="7.7"/>
<line class="st7" x1="205.1" y1="13.5" x2="205.1" y2="140.1"/>
<line class="st6" x1="205.1" y1="143.1" x2="205.1" y2="146.1"/>
<text transform="matrix(1 0 0 1 256.87 42.17)" class="st8 st4 st5">RF</text>
<text transform="matrix(1 0 0 1 268.87 42.17)" class="st8 st4 st5"> </text>
<text transform="matrix(1 0 0 1 270.87 42.17)" class="st8 st4 st5">ADC Block</text>
<rect x="323.2" y="82" class="st9" width="23.5" height="17.1"/>
<ellipse transform="matrix(0.7071 -0.7071 0.7071 0.7071 47.1375 238.302)" class="st9" cx="311.2" cy="62.3" rx="6.3" ry="5.9"/>
<line class="st10" x1="313.5" y1="64.5" x2="309.1" y2="60.1"/>
<line class="st10" x1="309" y1="64.5" x2="313.4" y2="60.1"/>
<ellipse transform="matrix(0.7071 -0.7071 0.7071 0.7071 6.8408 254.9297)" class="st9" cx="311.1" cy="119.2" rx="6.3" ry="5.9"/>
<line class="st10" x1="308.9" y1="117" x2="313.3" y2="121.4"/>
<line class="st10" x1="313.3" y1="117" x2="309" y2="121.4"/>
<line class="st11" x1="311.1" y1="94.9" x2="311.1" y2="112.7"/>
<line class="st10" x1="311.1" y1="94.9" x2="311.1" y2="109.1"/>
<polygon class="st8" points="308.6,108.4 311.1,112.7 313.6,108.4 "/>
<line class="st10" x1="322.8" y1="94.9" x2="311.1" y2="94.9"/>
<text transform="matrix(1 0 0 1 324.95 92.92)" class="st8 st4 st5">NCO</text>
<text transform="matrix(1 0 0 1 133.83 65.14)" class="st8 st4 st5">Real</text>
<line class="st10" x1="322.8" y1="86.1" x2="311.1" y2="86.1"/>
<line class="st11" x1="311.1" y1="86.1" x2="311.1" y2="68.3"/>
<line class="st10" x1="311.1" y1="86.1" x2="311.1" y2="71.9"/>
<polygon class="st8" points="313.6,72.7 311.1,68.3 308.6,72.7 "/>
<rect x="265.1" y="54" class="st9" width="16.6" height="16.6"/>
<line class="st11" x1="273.4" y1="56.8" x2="273.4" y2="67.7"/>
<line class="st10" x1="273.4" y1="56.8" x2="273.4" y2="64.1"/>
<polygon class="st8" points="270.9,63.4 273.4,67.7 275.9,63.4 "/>
<line class="st11" x1="304.5" y1="119.2" x2="281.7" y2="119.2"/>
<line class="st10" x1="304.5" y1="119.2" x2="285.3" y2="119.2"/>
<polygon class="st8" points="286,116.7 281.7,119.2 286,121.7 "/>
<line class="st11" x1="305.6" y1="62.3" x2="281.7" y2="62.3"/>
<line class="st10" x1="305.6" y1="62.3" x2="285.3" y2="62.3"/>
<polygon class="st8" points="286,59.8 281.7,62.3 286,64.8 "/>
<rect x="247.2" y="58.2" class="st9" width="7" height="7"/>
<text transform="matrix(1 0 0 1 132.69 118.96)" class="st8 st4 st5">Imag</text>
<line class="st11" x1="247.2" y1="61.7" x2="157.1" y2="61.7"/>
<line class="st10" x1="247.2" y1="61.7" x2="160.7" y2="61.7"/>
<polygon class="st8" points="161.5,59.2 157.1,61.7 161.5,64.1 "/>
<rect x="480.1" y="87.2" class="st9" width="7" height="7"/>
<line class="st10" x1="480.1" y1="90.7" x2="461.1" y2="90.7"/>
<rect x="369.1" y="53.4" class="st9" width="81.9" height="17.1"/>
<text transform="matrix(1 0 0 1 378.44 65.25)" class="st8 st4 st5">Pre-Processing</text>
<rect x="224.9" y="1" class="st12" width="302" height="156.3"/>
<text transform="matrix(1 0 0 1 235.6 18.63)" class="st3 st4 st5">RF ADC Tile</text>
<text transform="matrix(1 0 0 1 446.75 42.17)" class="st8 st13 st5">Leader</text>
<text transform="matrix(1 0 0 1 35.78 62)" class="st8 st13 st5">Follower</text>
<line class="st10" x1="490.6" y1="90.7" x2="505" y2="90.7"/>
<polygon class="st8" points="491.4,93.2 487.1,90.7 491.4,88.2 "/>
<polygon class="st9" points="543.3,100.8 557.2,90.7 543.3,80.6 505,80.6 505,100.8 "/>
<text transform="matrix(1 0 0 1 510.45 93.83)" class="st8 st4 st5">RF</text>
<text transform="matrix(1 0 0 1 522.45 93.83)" class="st8 st4 st5"> </text>
<text transform="matrix(1 0 0 1 524.45 93.83)" class="st8 st4 st5">ADC</text>
<line class="st11" x1="369.1" y1="119" x2="316.9" y2="119"/>
<line class="st10" x1="369.1" y1="119" x2="320.5" y2="119"/>
<polygon class="st8" points="321.3,116.5 316.9,119 321.3,121.5 "/>
<line class="st11" x1="369.1" y1="62.1" x2="316.9" y2="62.1"/>
<line class="st10" x1="369.1" y1="62.1" x2="320.5" y2="62.1"/>
<polygon class="st8" points="321.3,59.6 316.9,62.1 321.3,64.6 "/>
<rect x="247.2" y="115.1" class="st9" width="7" height="7"/>
<line class="st11" x1="247.2" y1="118.6" x2="157.1" y2="118.6"/>
<line class="st10" x1="247.2" y1="118.6" x2="160.7" y2="118.6"/>
<polygon class="st8" points="161.5,116.1 157.1,118.6 161.5,121.1 "/>
<line class="st10" x1="461.1" y1="62" x2="461.1" y2="118.6"/>
<rect x="265.1" y="110.7" class="st9" width="16.6" height="16.6"/>
<line class="st11" x1="273.4" y1="113.5" x2="273.4" y2="124.4"/>
<line class="st10" x1="273.4" y1="113.5" x2="273.4" y2="120.8"/>
<polygon class="st8" points="270.9,120.1 273.4,124.4 275.9,120.1 "/>
<rect x="369.1" y="110" class="st9" width="81.9" height="17.1"/>
<line class="st11" x1="264.5" y1="62.3" x2="254" y2="62.3"/>
<line class="st10" x1="264.5" y1="62.3" x2="257.6" y2="62.3"/>
<polygon class="st8" points="258.3,59.8 254,62.3 258.3,64.8 "/>
<line class="st11" x1="265" y1="119.2" x2="254.6" y2="119.2"/>
<line class="st10" x1="265" y1="119.2" x2="258.2" y2="119.2"/>
<polygon class="st8" points="258.9,116.7 254.6,119.2 258.9,121.7 "/>
<line class="st11" x1="254.6" y1="61.7" x2="244.2" y2="61.7"/>
<line class="st11" x1="254.7" y1="118.6" x2="244.2" y2="118.6"/>
<line class="st10" x1="461.1" y1="61.6" x2="451.6" y2="61.6"/>
<line class="st10" x1="460.4" y1="119" x2="450.9" y2="119"/>
<text transform="matrix(1 0 0 1 378.4398 121.22)" class="st8 st4 st5">Pre-Processing</text>
</svg>
