<svg id="Layer_1" data-name="Layer 1" xmlns="http://www.w3.org/2000/svg" viewBox="0 0 631.8 332.71"><defs><style>.cls-1,.cls-19{fill:#fff;}.cls-1,.cls-15,.cls-19,.cls-2,.cls-8{stroke:#1d1d1b;}.cls-1,.cls-15,.cls-2,.cls-3,.cls-4,.cls-8{stroke-miterlimit:10;}.cls-13,.cls-17,.cls-18,.cls-2,.cls-21,.cls-5,.cls-9{fill:#1d1d1b;}.cls-3,.cls-4{fill:#82b366;stroke:#231f20;}.cls-3{opacity:0.5;}.cls-13,.cls-17,.cls-18,.cls-21,.cls-5{font-size:9px;}.cls-13,.cls-17,.cls-18,.cls-5,.cls-7{font-family:ArialMT, Arial;}.cls-6{letter-spacing:-0.06em;}.cls-7{font-size:9px;fill:#231f20;}.cls-20,.cls-8{fill:none;}.cls-10,.cls-13{letter-spacing:-0.04em;}.cls-11{letter-spacing:-0.02em;}.cls-12{letter-spacing:-0.02em;}.cls-14{letter-spacing:0em;}.cls-15{fill:#d9d9d9;}.cls-16,.cls-17,.cls-18,.cls-21{isolation:isolate;}.cls-18{letter-spacing:-0.06em;}.cls-19{stroke-miterlimit:10;}.cls-21{font-family:Arial-BoldMT, Arial;font-weight:700;}</style></defs><polygon class="cls-1" points="428.73 92.31 448.28 106.63 428.73 120.95 374.47 120.95 374.47 92.31 428.73 92.31"/><polygon class="cls-1" points="428.73 258.61 448.28 272.93 428.73 287.25 374.47 287.25 374.47 258.61 428.73 258.61"/><circle class="cls-2" cx="420.46" cy="266.6" r="0.7"/><circle class="cls-2" cx="423.01" cy="264.18" r="0.7"/><circle class="cls-2" cx="425.73" cy="261.6" r="0.7"/><rect class="cls-3" x="120.58" y="0.5" width="268.75" height="306.79"/><rect class="cls-3" x="107.72" y="6.85" width="274.92" height="308.61"/><rect class="cls-3" x="95.48" y="13.68" width="280.51" height="310.78"/><rect class="cls-4" x="81.1" y="21.13" width="288.06" height="311.09"/><text class="cls-5" transform="translate(99.88 61.11)">RF<tspan class="cls-6" x="12" y="0"> </tspan><tspan x="14" y="0">ADC Block 0</tspan></text><text class="cls-7" transform="translate(93.7 37.38)">Dual Block RF ADC Tile</text><line class="cls-8" x1="382.64" y1="292.77" x2="525.16" y2="292.77"/><line class="cls-8" x1="382.64" y1="272.93" x2="525.16" y2="272.93"/><line class="cls-8" x1="382.64" y1="126.47" x2="525.16" y2="126.47"/><line class="cls-8" x1="382.64" y1="106.63" x2="525.16" y2="106.63"/><line class="cls-8" x1="381.88" y1="134.27" x2="381.88" y2="223.17"/><polygon class="cls-9" points="379.38 135 381.88 130.68 384.37 135 379.38 135"/><line class="cls-8" x1="407.29" y1="134.27" x2="407.29" y2="223.17"/><polygon class="cls-9" points="404.8 135 407.29 130.68 409.78 135 404.8 135"/><line class="cls-8" x1="503.36" y1="203.01" x2="503.36" y2="184.78"/><line class="cls-8" x1="333.69" y1="110.21" x2="367.78" y2="110.21"/><polygon class="cls-9" points="334.42 112.7 330.1 110.21 334.42 107.72 334.42 112.7"/><line class="cls-8" x1="333.69" y1="276.08" x2="367.78" y2="276.08"/><polygon class="cls-9" points="334.42 278.58 330.1 276.08 334.42 273.59 334.42 278.58"/><polygon class="cls-1" points="417.68 102.04 437.23 116.36 417.68 130.68 363.42 130.68 363.42 102.04 417.68 102.04"/><text class="cls-5" transform="translate(375.7 113.21)">RF-ADC<tspan x="0.24" y="10.8">Channel</tspan></text><polygon class="cls-1" points="417.68 268.33 437.23 282.65 417.68 296.97 363.42 296.97 363.42 268.33 417.68 268.33"/><text class="cls-5" transform="translate(375.7 280.15)">RF-ADC<tspan x="0.24" y="10.8">Channel</tspan></text><polyline class="cls-1" points="381.78 155.87 390.29 169.69 373.47 169.69 381.98 155.87"/><line class="cls-8" x1="347.82" y1="194.1" x2="428.47" y2="194.1"/><polygon class="cls-9" points="348.55 196.59 344.23 194.1 348.55 191.6 348.55 196.59"/><polyline class="cls-1" points="428.47 203.7 428.47 184.49 428.32 184.58 438.38 178.54 438.38 209.65 428.32 203.61"/><polyline class="cls-1" points="407.19 155.87 415.7 169.69 398.88 169.69 407.39 155.87"/><line class="cls-8" x1="382.06" y1="258.6" x2="382.06" y2="236.99"/><polygon class="cls-9" points="384.56 257.87 382.06 262.19 379.57 257.87 384.56 257.87"/><line class="cls-8" x1="407.47" y1="258.6" x2="407.47" y2="236.99"/><polygon class="cls-9" points="409.97 257.87 407.47 262.19 404.98 257.87 409.97 257.87"/><polyline class="cls-1" points="407.57 236.99 399.06 223.17 415.89 223.17 407.38 236.99"/><polyline class="cls-1" points="382.16 236.99 373.65 223.17 390.48 223.17 381.96 236.99"/><circle class="cls-2" cx="407.29" cy="194.1" r="2.16"/><circle class="cls-2" cx="382.06" cy="194.1" r="2.16"/><rect class="cls-1" x="473.35" y="195.79" width="17.12" height="23.53" transform="translate(682.82 -278.89) rotate(90)"/><text class="cls-5" transform="translate(467.42 206.18)">PL<tspan class="cls-10" x="11.01" y="0">L</tspan></text><line class="cls-8" x1="441.89" y1="203.01" x2="463.49" y2="203.01"/><polygon class="cls-9" points="442.62 205.51 438.3 203.01 442.62 200.52 442.62 205.51"/><line class="cls-8" x1="441.89" y1="184.78" x2="503.36" y2="184.78"/><polygon class="cls-9" points="442.62 187.28 438.3 184.78 442.62 182.29 442.62 187.28"/><line class="cls-8" x1="490.61" y1="203.01" x2="503.36" y2="203.01"/><polygon class="cls-9" points="491.34 205.51 487.02 203.01 491.34 200.52 491.34 205.51"/><line class="cls-8" x1="516.12" y1="193.9" x2="503.78" y2="193.9"/><rect class="cls-1" x="531.81" y="107.68" width="6.99" height="6.99" transform="translate(639.83 -428.67) rotate(90)"/><polyline class="cls-1" points="467.82 116.56 495.88 99.28 495.88 133.44 467.82 116.16"/><text class="cls-5" transform="translate(475.97 119.4)">BUF</text><circle class="cls-1" cx="423.09" cy="106.63" r="2.16"/><circle class="cls-1" cx="423.09" cy="126.47" r="2.16"/><polyline class="cls-8" points="506.53 126.46 506.53 122.99 503.11 121.48 503.11 121.57 509.94 118.99 509.94 119 503.11 116.42 503.11 116.57 509.94 113.99 509.94 114 503.11 111.42 506.53 109.91 506.41 109.96 506.41 106.63"/><rect class="cls-1" x="531.81" y="127.51" width="6.99" height="6.99" transform="translate(659.66 -408.85) rotate(90)"/><polyline class="cls-8" points="551.57 203.81 551.57 200.34 548.16 198.83 548.16 198.93 554.99 196.34 554.99 196.35 548.16 193.77 548.16 193.93 554.99 191.34 554.99 191.35 548.16 188.77 551.57 187.26 551.46 187.31 551.46 183.99"/><polyline class="cls-1" points="515.5 194.07 540.05 178.96 540.05 208.84 515.5 193.72"/><line class="cls-8" x1="540.05" y1="203.83" x2="570.23" y2="203.83"/><line class="cls-8" x1="540.05" y1="183.99" x2="570.23" y2="183.99"/><rect class="cls-1" x="576.87" y="185.04" width="6.99" height="6.99" transform="translate(762.26 -396.38) rotate(90)"/><rect class="cls-1" x="576.87" y="204.86" width="6.99" height="6.99" transform="translate(782.08 -376.56) rotate(90)"/><rect class="cls-1" x="531.81" y="273.98" width="6.99" height="6.99" transform="translate(806.13 -262.38) rotate(90)"/><polyline class="cls-1" points="467.82 282.85 495.88 265.57 495.88 299.74 467.82 282.45"/><text class="cls-5" transform="translate(475.98 285.7)">BUF</text><circle class="cls-1" cx="423.09" cy="272.93" r="2.16"/><circle class="cls-1" cx="423.09" cy="292.77" r="2.16"/><polyline class="cls-8" points="506.53 292.75 506.53 289.28 503.11 287.77 503.11 287.87 509.94 285.28 509.94 285.29 503.11 282.71 503.11 282.87 509.94 280.28 509.94 280.29 503.11 277.71 506.53 276.2 506.41 276.25 506.41 272.93"/><rect class="cls-1" x="531.81" y="293.8" width="6.99" height="6.99" transform="translate(825.95 -242.55) rotate(90)"/><text class="cls-5" transform="translate(535.23 110.13)">VIN_<tspan class="cls-11" x="20.01" y="0">P</tspan></text><text class="cls-5" transform="translate(534.9 129.97)">VIN_N</text><text class="cls-5" transform="translate(534.44 276.66)">VIN_<tspan class="cls-11" x="20.01" y="0">P</tspan></text><text class="cls-5" transform="translate(534.11 296.5)">VIN_N</text><text class="cls-5" transform="translate(579.11 186.91)">ADC_CLK_<tspan class="cls-12" x="46.52" y="0">P</tspan></text><text class="cls-5" transform="translate(578.78 205.61)">ADC_CLK_N</text><line class="cls-8" x1="56.1" y1="80.59" x2="90.2" y2="80.59"/><polygon class="cls-9" points="56.83 83.09 52.52 80.59 56.83 78.1 56.83 83.09"/><line class="cls-8" x1="56.1" y1="137.5" x2="90.2" y2="137.5"/><polygon class="cls-9" points="56.83 140 52.52 137.5 56.83 135.01 56.83 140"/><circle class="cls-2" cx="420.46" cy="100.31" r="0.7"/><circle class="cls-2" cx="423.01" cy="97.89" r="0.7"/><circle class="cls-2" cx="425.73" cy="95.3" r="0.7"/><line class="cls-8" x1="56.1" y1="247.07" x2="90.2" y2="247.07"/><polygon class="cls-9" points="56.83 249.56 52.52 247.07 56.83 244.57 56.83 249.56"/><line class="cls-8" x1="56.1" y1="303.98" x2="90.2" y2="303.98"/><polygon class="cls-9" points="56.83 306.47 52.52 303.98 56.83 301.48 56.83 306.47"/><text class="cls-7" transform="translate(0.01 249.59)">AXI-Stream<tspan x="13.25" y="10.8">Imag</tspan></text><text class="cls-7" transform="translate(0.01 306.48)">AXI-Stream<tspan x="14" y="10.8">Real</tspan></text><text class="cls-7" transform="translate(0.01 83.43)">AXI-Stream<tspan x="13.25" y="10.8">Imag</tspan></text><text class="cls-7" transform="translate(0.01 140.32)">AXI-Stream<tspan x="14" y="10.8">Real</tspan></text><text class="cls-13" transform="translate(295.62 196.26)">T<tspan class="cls-14" x="5.16" y="0">ile Clocks</tspan></text><text class="cls-7" transform="translate(529.9 9.9)">ZU28DR RFSoC Device</text><rect class="cls-15" x="93.48" y="213" width="232.87" height="105.8"/><g class="cls-16"><text class="cls-17" transform="translate(99.65 227.74)">RF</text><text class="cls-18" transform="translate(111.65 227.74)"> </text><text class="cls-17" transform="translate(113.65 227.74)">ADC Block 1</text></g><rect class="cls-1" x="165.97" y="267.55" width="23.53" height="17.12"/><ellipse class="cls-19" cx="160.65" cy="252.37" rx="6.3" ry="5.87" transform="translate(-138.05 182.97) rotate(-45)"/><line class="cls-8" x1="156.23" y1="250.05" x2="151.85" y2="245.67"/><line class="cls-8" x1="151.82" y1="250.02" x2="156.2" y2="245.64"/><ellipse class="cls-19" cx="160.57" cy="309.33" rx="6.3" ry="5.87" transform="translate(-178.35 199.59) rotate(-45)"/><line class="cls-8" x1="151.71" y1="302.55" x2="156.09" y2="306.93"/><line class="cls-8" x1="156.12" y1="302.58" x2="151.74" y2="306.96"/><line class="cls-20" x1="153.9" y1="280.45" x2="153.9" y2="298.25"/><line class="cls-8" x1="153.9" y1="280.45" x2="153.9" y2="294.66"/><polygon class="cls-9" points="151.41 293.93 153.9 298.25 156.39 293.93 151.41 293.93"/><line class="cls-8" x1="165.55" y1="280.45" x2="153.9" y2="280.45"/><text class="cls-17" transform="translate(167.73 278.49)">NCO</text><line class="cls-8" x1="165.55" y1="271.71" x2="153.9" y2="271.71"/><line class="cls-20" x1="153.9" y1="271.71" x2="153.9" y2="253.91"/><line class="cls-8" x1="153.9" y1="271.71" x2="153.9" y2="257.5"/><polygon class="cls-9" points="156.39 258.23 153.9 253.91 151.41 258.23 156.39 258.23"/><rect class="cls-1" x="107.89" y="239.57" width="16.58" height="16.58"/><line class="cls-20" x1="116.18" y1="242.38" x2="116.18" y2="253.25"/><line class="cls-8" x1="116.18" y1="242.38" x2="116.18" y2="249.66"/><polygon class="cls-9" points="113.68 248.93 116.18 253.25 118.67 248.93 113.68 248.93"/><line class="cls-20" x1="147.28" y1="304.74" x2="124.47" y2="304.74"/><line class="cls-8" x1="147.28" y1="304.74" x2="128.05" y2="304.74"/><polygon class="cls-9" points="128.78 302.24 124.47 304.74 128.78 307.23 128.78 302.24"/><line class="cls-20" x1="148.39" y1="247.83" x2="124.47" y2="247.83"/><line class="cls-8" x1="148.39" y1="247.83" x2="128.05" y2="247.83"/><polygon class="cls-9" points="128.78 245.33 124.47 247.83 128.78 250.32 128.78 245.33"/><rect class="cls-1" x="89.98" y="243.73" width="6.99" height="6.99"/><rect class="cls-1" x="322.85" y="272.81" width="6.99" height="6.99"/><line class="cls-8" x1="322.85" y1="276.3" x2="303.86" y2="276.3"/><rect class="cls-1" x="211.86" y="239.01" width="81.87" height="17.12"/><text class="cls-17" transform="translate(221.22 249.82)">Pre-Processing</text><text class="cls-21" transform="translate(289.53 227.74)">Leader</text><line class="cls-20" x1="211.86" y1="304.56" x2="159.72" y2="304.56"/><line class="cls-8" x1="211.86" y1="304.56" x2="163.31" y2="304.56"/><polygon class="cls-9" points="164.04 302.07 159.72 304.56 164.04 307.06 164.04 302.07"/><line class="cls-20" x1="211.86" y1="247.65" x2="159.72" y2="247.65"/><line class="cls-8" x1="211.86" y1="247.65" x2="163.31" y2="247.65"/><polygon class="cls-9" points="164.04 245.16 159.72 247.65 164.04 250.15 164.04 245.16"/><rect class="cls-1" x="89.98" y="300.64" width="6.99" height="6.99"/><line class="cls-8" x1="303.86" y1="247.57" x2="303.86" y2="304.13"/><rect class="cls-1" x="107.89" y="296.27" width="16.58" height="16.58"/><line class="cls-20" x1="116.18" y1="299.08" x2="116.18" y2="309.95"/><line class="cls-8" x1="116.18" y1="299.08" x2="116.18" y2="306.36"/><polygon class="cls-9" points="113.68 305.63 116.18 309.95 118.67 305.63 113.68 305.63"/><rect class="cls-1" x="211.86" y="295.57" width="81.87" height="17.12"/><line class="cls-20" x1="107.24" y1="247.86" x2="96.8" y2="247.86"/><line class="cls-8" x1="107.24" y1="247.86" x2="100.39" y2="247.86"/><polygon class="cls-9" points="101.11 245.37 96.8 247.86 101.11 250.36 101.11 245.37"/><line class="cls-20" x1="107.81" y1="304.77" x2="97.36" y2="304.77"/><line class="cls-8" x1="107.81" y1="304.77" x2="100.95" y2="304.77"/><polygon class="cls-9" points="101.68 302.28 97.36 304.77 101.68 307.27 101.68 302.28"/><line class="cls-20" x1="97.41" y1="247.22" x2="86.97" y2="247.22"/><line class="cls-20" x1="97.45" y1="304.13" x2="87.01" y2="304.13"/><line class="cls-8" x1="303.86" y1="247.22" x2="294.36" y2="247.22"/><line class="cls-8" x1="303.22" y1="304.57" x2="293.73" y2="304.57"/><rect class="cls-15" x="93.52" y="46.38" width="232.87" height="105.8"/><g class="cls-16"><text class="cls-17" transform="translate(99.69 61.12)">RF</text><text class="cls-18" transform="translate(111.69 61.12)"> </text><text class="cls-17" transform="translate(113.69 61.12)">ADC Block 0</text></g><rect class="cls-1" x="166.01" y="100.93" width="23.53" height="17.12"/><ellipse class="cls-19" cx="160.69" cy="85.75" rx="6.3" ry="5.87" transform="translate(-20.22 134.19) rotate(-45)"/><line class="cls-8" x1="156.27" y1="83.43" x2="151.89" y2="79.05"/><line class="cls-8" x1="151.86" y1="83.4" x2="156.24" y2="79.02"/><ellipse class="cls-19" cx="160.61" cy="142.7" rx="6.3" ry="5.87" transform="translate(-60.51 150.82) rotate(-45)"/><line class="cls-8" x1="151.75" y1="135.93" x2="156.13" y2="140.31"/><line class="cls-8" x1="156.16" y1="135.96" x2="151.78" y2="140.34"/><line class="cls-20" x1="153.94" y1="113.83" x2="153.94" y2="131.63"/><line class="cls-8" x1="153.94" y1="113.83" x2="153.94" y2="128.04"/><polygon class="cls-9" points="151.45 127.31 153.94 131.63 156.43 127.31 151.45 127.31"/><line class="cls-8" x1="165.59" y1="113.83" x2="153.94" y2="113.83"/><text class="cls-17" transform="translate(167.77 111.87)">NCO</text><line class="cls-8" x1="165.59" y1="105.09" x2="153.94" y2="105.09"/><line class="cls-20" x1="153.94" y1="105.09" x2="153.94" y2="87.29"/><line class="cls-8" x1="153.94" y1="105.09" x2="153.94" y2="90.88"/><polygon class="cls-9" points="156.43 91.61 153.94 87.29 151.45 91.61 156.43 91.61"/><rect class="cls-1" x="107.93" y="72.95" width="16.58" height="16.58"/><line class="cls-20" x1="116.22" y1="75.76" x2="116.22" y2="86.63"/><line class="cls-8" x1="116.22" y1="75.76" x2="116.22" y2="83.04"/><polygon class="cls-9" points="113.72 82.31 116.22 86.63 118.71 82.31 113.72 82.31"/><line class="cls-20" x1="147.32" y1="138.12" x2="124.51" y2="138.12"/><line class="cls-8" x1="147.32" y1="138.12" x2="128.09" y2="138.12"/><polygon class="cls-9" points="128.82 135.62 124.51 138.12 128.82 140.61 128.82 135.62"/><line class="cls-20" x1="148.43" y1="81.21" x2="124.51" y2="81.21"/><line class="cls-8" x1="148.43" y1="81.21" x2="128.09" y2="81.21"/><polygon class="cls-9" points="128.82 78.71 124.51 81.21 128.82 83.7 128.82 78.71"/><rect class="cls-1" x="90.02" y="77.11" width="6.99" height="6.99"/><rect class="cls-1" x="322.89" y="106.19" width="6.99" height="6.99"/><line class="cls-8" x1="322.89" y1="109.68" x2="303.9" y2="109.68"/><rect class="cls-1" x="211.9" y="72.39" width="81.87" height="17.12"/><text class="cls-21" transform="translate(289.57 61.12)">Leader</text><line class="cls-20" x1="211.9" y1="137.94" x2="159.76" y2="137.94"/><line class="cls-8" x1="211.9" y1="137.94" x2="163.35" y2="137.94"/><polygon class="cls-9" points="164.08 135.45 159.76 137.94 164.08 140.44 164.08 135.45"/><line class="cls-20" x1="211.9" y1="81.03" x2="159.76" y2="81.03"/><line class="cls-8" x1="211.9" y1="81.03" x2="163.35" y2="81.03"/><polygon class="cls-9" points="164.08 78.54 159.76 81.03 164.08 83.53 164.08 78.54"/><rect class="cls-1" x="90.02" y="134.02" width="6.99" height="6.99"/><line class="cls-8" x1="303.9" y1="80.95" x2="303.9" y2="137.51"/><rect class="cls-1" x="107.93" y="129.65" width="16.58" height="16.58"/><line class="cls-20" x1="116.22" y1="132.46" x2="116.22" y2="143.33"/><line class="cls-8" x1="116.22" y1="132.46" x2="116.22" y2="139.74"/><polygon class="cls-9" points="113.72 139.01 116.22 143.33 118.71 139.01 113.72 139.01"/><rect class="cls-1" x="211.9" y="128.94" width="81.87" height="17.12"/><line class="cls-20" x1="107.28" y1="81.24" x2="96.84" y2="81.24"/><line class="cls-8" x1="107.28" y1="81.24" x2="100.43" y2="81.24"/><polygon class="cls-9" points="101.15 78.75 96.84 81.24 101.15 83.74 101.15 78.75"/><line class="cls-20" x1="107.85" y1="138.15" x2="97.4" y2="138.15"/><line class="cls-8" x1="107.85" y1="138.15" x2="100.99" y2="138.15"/><polygon class="cls-9" points="101.72 135.66 97.4 138.15 101.72 140.65 101.72 135.66"/><line class="cls-20" x1="97.45" y1="80.6" x2="87.01" y2="80.6"/><line class="cls-20" x1="97.49" y1="137.51" x2="87.05" y2="137.51"/><line class="cls-8" x1="303.9" y1="80.59" x2="294.4" y2="80.59"/><line class="cls-8" x1="303.26" y1="137.94" x2="293.77" y2="137.94"/><text class="cls-17" transform="translate(221.22 307.06)">Pre-Processing</text><text class="cls-17" transform="translate(221.22 83.25)">Pre-Processing</text><text class="cls-17" transform="translate(221.22 140.49)">Pre-Processing</text></svg>