<svg id="Layer_1" data-name="Layer 1" xmlns="http://www.w3.org/2000/svg" viewBox="0 0 558.05 158.3"><defs><style>.cls-1{fill:#d9d9d9;}.cls-1,.cls-10,.cls-11,.cls-9{stroke:#1d1d1b;}.cls-1,.cls-11,.cls-14,.cls-2,.cls-3,.cls-6,.cls-7,.cls-9{stroke-miterlimit:10;}.cls-2{fill:#d0d2d3;stroke:#231f20;}.cls-11,.cls-12,.cls-14,.cls-3,.cls-6,.cls-7{fill:none;}.cls-3{stroke:#d6b656;}.cls-14,.cls-3{stroke-width:2px;}.cls-17,.cls-4,.cls-8{isolation:isolate;font-size:9px;}.cls-4{fill:#231f20;}.cls-4,.cls-8{font-family:ArialMT, Arial;}.cls-5{letter-spacing:-0.06em;}.cls-6,.cls-7{stroke:#000;}.cls-7{stroke-dasharray:5.89 5.89;}.cls-13,.cls-17,.cls-8{fill:#1d1d1b;}.cls-10,.cls-9{fill:#fff;}.cls-10{stroke-miterlimit:10;}.cls-14{stroke:#82b366;}.cls-15{letter-spacing:-0.02em;}.cls-16{letter-spacing:-0.04em;}.cls-17{font-family:Arial-BoldMT, Arial;font-weight:700;}</style></defs><rect class="cls-1" x="250.7" y="27.4" width="232.9" height="105.8"/><rect class="cls-2" x="30" y="49.4" width="127.1" height="81.1"/><rect class="cls-3" x="1" y="1" width="185.3" height="156.3"/><text class="cls-4" transform="translate(9.69 18.63)">Programmable Logic</text><text class="cls-4" transform="translate(41.07 93.38)">Receive samples</text><text class="cls-4" transform="translate(48.33 104.18)">from RF<tspan class="cls-5" x="32.5" y="0"> </tspan><tspan x="34.5" y="0">ADC</tspan></text><line class="cls-6" x1="205.1" y1="4.7" x2="205.1" y2="7.7"/><line class="cls-7" x1="205.1" y1="13.5" x2="205.1" y2="140.1"/><line class="cls-6" x1="205.1" y1="143.1" x2="205.1" y2="146.1"/><text class="cls-8" transform="translate(256.87 42.17)">RF</text><text class="cls-8" transform="translate(268.87 42.17)"> </text><text class="cls-8" transform="translate(270.87 42.17)">ADC Block</text><rect class="cls-9" x="323.2" y="82" width="23.5" height="17.1"/><ellipse class="cls-10" cx="311.24" cy="62.3" rx="6.3" ry="5.9" transform="translate(47.1 238.33) rotate(-45)"/><line class="cls-11" x1="313.5" y1="64.5" x2="309.1" y2="60.1"/><line class="cls-11" x1="309" y1="64.5" x2="313.4" y2="60.1"/><ellipse class="cls-10" cx="311.11" cy="119.24" rx="6.3" ry="5.9" transform="translate(6.81 254.91) rotate(-45)"/><line class="cls-11" x1="308.9" y1="117" x2="313.3" y2="121.4"/><line class="cls-11" x1="313.3" y1="117" x2="309" y2="121.4"/><line class="cls-12" x1="311.1" y1="94.9" x2="311.1" y2="112.7"/><line class="cls-11" x1="311.1" y1="94.9" x2="311.1" y2="109.1"/><polygon class="cls-13" points="308.6 108.4 311.1 112.7 313.6 108.4 308.6 108.4"/><line class="cls-11" x1="322.8" y1="94.9" x2="311.1" y2="94.9"/><text class="cls-8" transform="translate(324.95 92.92)">NCO</text><text class="cls-8" transform="translate(133.83 65.14)">Real</text><line class="cls-11" x1="322.8" y1="86.1" x2="311.1" y2="86.1"/><line class="cls-12" x1="311.1" y1="86.1" x2="311.1" y2="68.3"/><line class="cls-11" x1="311.1" y1="86.1" x2="311.1" y2="71.9"/><polygon class="cls-13" points="313.6 72.7 311.1 68.3 308.6 72.7 313.6 72.7"/><rect class="cls-9" x="265.1" y="54" width="16.6" height="16.6"/><line class="cls-12" x1="273.4" y1="56.8" x2="273.4" y2="67.7"/><line class="cls-11" x1="273.4" y1="56.8" x2="273.4" y2="64.1"/><polygon class="cls-13" points="270.9 63.4 273.4 67.7 275.9 63.4 270.9 63.4"/><line class="cls-12" x1="304.5" y1="119.2" x2="281.7" y2="119.2"/><line class="cls-11" x1="304.5" y1="119.2" x2="285.3" y2="119.2"/><polygon class="cls-13" points="286 116.7 281.7 119.2 286 121.7 286 116.7"/><line class="cls-12" x1="305.6" y1="62.3" x2="281.7" y2="62.3"/><line class="cls-11" x1="305.6" y1="62.3" x2="285.3" y2="62.3"/><polygon class="cls-13" points="286 59.8 281.7 62.3 286 64.8 286 59.8"/><rect class="cls-9" x="247.2" y="58.2" width="7" height="7"/><text class="cls-8" transform="translate(132.69 118.96)">Imag</text><line class="cls-12" x1="247.2" y1="61.7" x2="157.1" y2="61.7"/><line class="cls-11" x1="247.2" y1="61.7" x2="160.7" y2="61.7"/><polygon class="cls-13" points="161.5 59.2 157.1 61.7 161.5 64.1 161.5 59.2"/><rect class="cls-9" x="480.1" y="87.2" width="7" height="7"/><line class="cls-11" x1="480.1" y1="90.7" x2="461.1" y2="90.7"/><rect class="cls-9" x="369.1" y="53.4" width="81.9" height="17.1"/><text class="cls-8" transform="translate(378.44 65.25)">Pre-Processing</text><rect class="cls-14" x="224.9" y="1" width="302" height="156.3"/><text class="cls-4" transform="translate(235.6 18.63)">RF<tspan class="cls-5" x="12" y="0"> </tspan><tspan x="14" y="0">ADC</tspan><tspan class="cls-15" x="33" y="0"> </tspan><tspan class="cls-16" x="35.34" y="0">T</tspan><tspan x="40.5" y="0">ile</tspan></text><text class="cls-17" transform="translate(446.75 42.17)">Leader</text><text class="cls-17" transform="translate(35.78 62)">Follower</text><line class="cls-11" x1="490.6" y1="90.7" x2="505" y2="90.7"/><polygon class="cls-13" points="491.4 93.2 487.1 90.7 491.4 88.2 491.4 93.2"/><polygon class="cls-9" points="543.3 100.8 557.2 90.7 543.3 80.6 505 80.6 505 100.8 543.3 100.8"/><text class="cls-8" transform="translate(510.45 93.83)">RF</text><text class="cls-8" transform="translate(522.45 93.83)"> </text><text class="cls-8" transform="translate(524.45 93.83)">ADC</text><line class="cls-12" x1="369.1" y1="119" x2="316.9" y2="119"/><line class="cls-11" x1="369.1" y1="119" x2="320.5" y2="119"/><polygon class="cls-13" points="321.3 116.5 316.9 119 321.3 121.5 321.3 116.5"/><line class="cls-12" x1="369.1" y1="62.1" x2="316.9" y2="62.1"/><line class="cls-11" x1="369.1" y1="62.1" x2="320.5" y2="62.1"/><polygon class="cls-13" points="321.3 59.6 316.9 62.1 321.3 64.6 321.3 59.6"/><rect class="cls-9" x="247.2" y="115.1" width="7" height="7"/><line class="cls-12" x1="247.2" y1="118.6" x2="157.1" y2="118.6"/><line class="cls-11" x1="247.2" y1="118.6" x2="160.7" y2="118.6"/><polygon class="cls-13" points="161.5 116.1 157.1 118.6 161.5 121.1 161.5 116.1"/><line class="cls-11" x1="461.1" y1="62" x2="461.1" y2="118.6"/><rect class="cls-9" x="265.1" y="110.7" width="16.6" height="16.6"/><line class="cls-12" x1="273.4" y1="113.5" x2="273.4" y2="124.4"/><line class="cls-11" x1="273.4" y1="113.5" x2="273.4" y2="120.8"/><polygon class="cls-13" points="270.9 120.1 273.4 124.4 275.9 120.1 270.9 120.1"/><rect class="cls-9" x="369.1" y="110" width="81.9" height="17.1"/><line class="cls-12" x1="264.5" y1="62.3" x2="254" y2="62.3"/><line class="cls-11" x1="264.5" y1="62.3" x2="257.6" y2="62.3"/><polygon class="cls-13" points="258.3 59.8 254 62.3 258.3 64.8 258.3 59.8"/><line class="cls-12" x1="265" y1="119.2" x2="254.6" y2="119.2"/><line class="cls-11" x1="265" y1="119.2" x2="258.2" y2="119.2"/><polygon class="cls-13" points="258.9 116.7 254.6 119.2 258.9 121.7 258.9 116.7"/><line class="cls-12" x1="254.6" y1="61.7" x2="244.2" y2="61.7"/><line class="cls-12" x1="254.7" y1="118.6" x2="244.2" y2="118.6"/><line class="cls-11" x1="461.1" y1="61.6" x2="451.6" y2="61.6"/><line class="cls-11" x1="460.4" y1="119" x2="450.9" y2="119"/><text class="cls-8" transform="translate(378.44 121.22)">Pre-Processing</text></svg>