<svg id="Layer_1" data-name="Layer 1" xmlns="http://www.w3.org/2000/svg" viewBox="0 0 558 158.3"><defs><style>.cls-1,.cls-9{fill:#d9d9d9;}.cls-1,.cls-10,.cls-8{stroke:#1d1d1b;}.cls-1,.cls-10,.cls-13,.cls-2,.cls-3,.cls-5,.cls-6,.cls-8{stroke-miterlimit:10;}.cls-2{fill:#d0d2d3;stroke:#231f20;}.cls-10,.cls-13,.cls-3,.cls-5,.cls-6{fill:none;}.cls-3{stroke:#d6b656;}.cls-13,.cls-3{stroke-width:2px;}.cls-4{font-size:9px;fill:#231f20;}.cls-4,.cls-7{font-family:ArialMT, Arial;}.cls-5,.cls-6{stroke:#000;}.cls-6{stroke-dasharray:5.89 5.89;}.cls-14,.cls-7{font-size:9px;}.cls-11,.cls-14,.cls-7{fill:#1d1d1b;}.cls-12,.cls-8{fill:#fff;}.cls-13{stroke:#82b366;}.cls-14{font-family:Arial-BoldMT, Arial;font-weight:700;}</style></defs><rect class="cls-1" x="259.72" y="37.62" width="232.87" height="105.8" transform="translate(743.29 170.85) rotate(180)"/><rect class="cls-2" x="30.01" y="49.35" width="127.12" height="81.07"/><rect class="cls-3" x="1" y="1" width="185.29" height="156.3"/><text class="cls-4" transform="translate(9.69 18.63)">Programmable Logic</text><text class="cls-4" transform="translate(36.07 93.38)">Generate / Transfer<tspan x="6.76" y="10.8">Data to RF DAC</tspan></text><line class="cls-5" x1="205.15" y1="4.65" x2="205.15" y2="7.65"/><line class="cls-6" x1="205.15" y1="13.53" x2="205.15" y2="140.12"/><line class="cls-5" x1="205.15" y1="143.06" x2="205.15" y2="146.06"/><text class="cls-7" transform="translate(256.87 42.17)">RF DAC Block</text><rect class="cls-8" x="336.58" y="88.71" width="17.12" height="23.53" transform="translate(235.63 435.44) rotate(-90)"/><ellipse class="cls-8" cx="321.42" cy="72.2" rx="6.3" ry="5.87" transform="translate(34.06 238.24) rotate(-45)"/><line class="cls-8" x1="314.61" y1="64.24" x2="310.23" y2="59.86"/><line class="cls-8" x1="310.2" y1="64.2" x2="314.58" y2="59.82"/><ellipse class="cls-8" cx="321.34" cy="129.15" rx="6.3" ry="5.87" transform="translate(-6.23 254.86) rotate(-45)"/><line class="cls-8" x1="310.09" y1="116.73" x2="314.47" y2="121.11"/><line class="cls-8" x1="314.5" y1="116.77" x2="310.13" y2="121.15"/><line class="cls-9" x1="312.28" y1="94.63" x2="312.28" y2="112.43"/><line class="cls-10" x1="312.28" y1="94.63" x2="312.28" y2="108.85"/><polygon class="cls-11" points="309.79 108.12 312.28 112.43 314.77 108.12 309.79 108.12"/><line class="cls-1" x1="323.93" y1="94.63" x2="312.28" y2="94.63"/><text class="cls-7" transform="translate(326.11 92.68)">NCO</text><text class="cls-7" transform="translate(132.69 84.81)">Real</text><line class="cls-1" x1="323.93" y1="85.9" x2="312.28" y2="85.9"/><line class="cls-9" x1="312.28" y1="85.9" x2="312.28" y2="68.1"/><line class="cls-10" x1="312.28" y1="85.9" x2="312.28" y2="71.69"/><polygon class="cls-11" points="314.77 72.42 312.28 68.1 309.79 72.42 314.77 72.42"/><rect class="cls-8" x="276.55" y="120.86" width="16.58" height="16.58" transform="translate(146.66 403.8) rotate(-90)"/><line class="cls-12" x1="275.81" y1="124.34" x2="275.81" y2="113.48"/><line class="cls-10" x1="275.81" y1="124.34" x2="275.81" y2="117.07"/><polygon class="cls-11" points="278.3 117.8 275.81 113.48 273.31 117.8 278.3 117.8"/><line class="cls-9" x1="284.1" y1="118.92" x2="305.66" y2="118.92"/><line class="cls-10" x1="284.1" y1="118.92" x2="302.07" y2="118.92"/><polygon class="cls-11" points="301.35 121.42 305.66 118.92 301.35 116.43 301.35 121.42"/><rect class="cls-8" x="276.55" y="63.95" width="16.58" height="16.58" transform="translate(203.57 346.89) rotate(-90)"/><line class="cls-12" x1="275.81" y1="67.43" x2="275.81" y2="56.57"/><line class="cls-10" x1="275.81" y1="67.43" x2="275.81" y2="60.16"/><polygon class="cls-11" points="278.3 60.89 275.81 56.57 273.31 60.89 278.3 60.89"/><line class="cls-9" x1="284.1" y1="62.01" x2="306.77" y2="62.01"/><line class="cls-10" x1="284.1" y1="62.01" x2="303.18" y2="62.01"/><polygon class="cls-11" points="302.45 64.51 306.77 62.01 302.45 59.52 302.45 64.51"/><line class="cls-9" x1="258.46" y1="118.96" x2="267.52" y2="118.96"/><line class="cls-10" x1="258.46" y1="118.96" x2="263.93" y2="118.96"/><polygon class="cls-11" points="263.2 121.45 267.52 118.96 263.2 116.47 263.2 121.45"/><rect class="cls-8" x="256.22" y="96.57" width="6.99" height="6.99" transform="translate(150.62 349.6) rotate(-90)"/><line class="cls-9" x1="258.46" y1="62.09" x2="267.52" y2="62.09"/><line class="cls-10" x1="258.46" y1="62.09" x2="263.93" y2="62.09"/><polygon class="cls-11" points="263.2 64.58 267.52 62.09 263.2 59.59 263.2 64.58"/><text class="cls-7" transform="translate(132.69 94.64)">Imag</text><line class="cls-9" x1="157.14" y1="89.88" x2="247.2" y2="89.88"/><line class="cls-10" x1="157.14" y1="89.88" x2="243.61" y2="89.88"/><polygon class="cls-11" points="242.88 92.38 247.2 89.88 242.88 87.39 242.88 92.38"/><line class="cls-9" x1="361.03" y1="118.96" x2="361.03" y2="96.55"/><line class="cls-10" x1="361.03" y1="118.96" x2="361.03" y2="100.14"/><polygon class="cls-11" points="363.52 100.86 361.03 96.55 358.54 100.86 363.52 100.86"/><line class="cls-9" x1="361.03" y1="62.09" x2="361.03" y2="84.81"/><line class="cls-10" x1="361.03" y1="62.09" x2="361.03" y2="81.22"/><polygon class="cls-11" points="358.54 80.49 361.03 84.81 363.52 80.49 358.54 80.49"/><line class="cls-1" x1="361.03" y1="62.09" x2="318.4" y2="62.09"/><rect class="cls-8" x="489.1" y="97.42" width="6.99" height="6.99" transform="translate(382.65 583.33) rotate(-90)"/><ellipse class="cls-8" cx="361.03" cy="90.68" rx="6.3" ry="5.87"/><line class="cls-8" x1="361.03" y1="93.83" x2="361.03" y2="87.63"/><line class="cls-8" x1="357.93" y1="90.68" x2="364.13" y2="90.68"/><line class="cls-1" x1="361.03" y1="118.96" x2="318.4" y2="118.96"/><line class="cls-10" x1="476.48" y1="90.73" x2="461.08" y2="90.73"/><polygon class="cls-11" points="475.75 88.24 480.07 90.73 475.75 93.22 475.75 88.24"/><rect class="cls-8" x="424.74" y="59.98" width="17.12" height="81.87" transform="translate(323.35 524.03) rotate(-90)"/><text class="cls-7" transform="translate(385.68 92.97)">Further Processing</text><line class="cls-10" x1="378.94" y1="90.29" x2="367.33" y2="90.29"/><polygon class="cls-11" points="378.21 87.8 382.53 90.29 378.21 92.79 378.21 87.8"/><rect class="cls-13" x="224.93" y="1" width="302.02" height="156.3"/><text class="cls-4" transform="translate(235.6 18.63)">RF DAC Tile</text><text class="cls-14" transform="translate(438.55 42.17)">Follower</text><text class="cls-14" transform="translate(35.78 62)">Leader</text><line class="cls-10" x1="501.41" y1="90.73" x2="487.06" y2="90.73"/><polygon class="cls-11" points="500.68 88.24 505 90.73 500.68 93.22 500.68 88.24"/><polygon class="cls-8" points="543.34 100.8 557.16 90.68 543.34 80.56 505 80.56 505 100.8 543.34 100.8"/><text class="cls-7" transform="translate(510.2 93.83)">RF DAC</text><line class="cls-1" x1="258.46" y1="61.61" x2="258.46" y2="89.88"/><line class="cls-1" x1="258.96" y1="89.88" x2="254" y2="89.88"/><line class="cls-1" x1="258.46" y1="89.88" x2="258.46" y2="118.96"/></svg>