<svg id="Layer_1" data-name="Layer 1" xmlns="http://www.w3.org/2000/svg" viewBox="0 0 492.65 354.95"><defs><style>.cls-1,.cls-10,.cls-11,.cls-12{fill:#fff;}.cls-2{fill:#6c8ebf;}.cls-11,.cls-13,.cls-14,.cls-15,.cls-2,.cls-3,.cls-4,.cls-5,.cls-7,.cls-9{stroke:#1d1d1b;}.cls-10,.cls-11,.cls-12,.cls-13,.cls-14,.cls-15,.cls-2,.cls-3,.cls-4,.cls-5,.cls-7,.cls-9{stroke-miterlimit:10;}.cls-3{fill:#d6b656;opacity:0.75;}.cls-4{fill:#f1f1f2;}.cls-5{fill:#d9d9d9;}.cls-6,.cls-9{font-size:8px;font-family:ArialMT, Arial;}.cls-15,.cls-6,.cls-8,.cls-9{fill:#1d1d1b;}.cls-7{fill:none;}.cls-9{stroke-width:0.25px;}.cls-10{stroke:#0086cb;}.cls-12{stroke:#ea6b66;}.cls-13,.cls-14{fill:#82b366;}.cls-13{opacity:0.5;}.cls-16{letter-spacing:-0.02em;}.cls-17{letter-spacing:-0.04em;}.cls-18{letter-spacing:-0.06em;}</style></defs><rect class="cls-1" width="492.56" height="354.95"/><rect class="cls-2" x="-9.85" y="32.17" width="332.2" height="299.63" transform="translate(-25.73 338.24) rotate(-90)"/><rect class="cls-3" x="228.4" y="93.55" width="332.2" height="176.87" transform="translate(212.52 576.49) rotate(-90)"/><polygon class="cls-4" points="269.33 222.06 269.33 301.46 288.06 301.46 288.06 203.33 167.45 203.33 167.45 222.06 269.33 222.06"/><rect class="cls-5" x="308.7" y="60.48" width="199.7" height="148.78" transform="translate(273.67 543.42) rotate(-90)"/><polygon class="cls-4" points="125.02 158.97 125.02 301.46 143.75 301.46 143.75 140.24 23.14 140.24 23.14 158.97 125.02 158.97"/><rect class="cls-5" x="43.38" y="7.56" width="79.9" height="134.83" transform="translate(8.35 158.3) rotate(-90)"/><text class="cls-6" transform="translate(20.28 45.2)">RPU</text><line class="cls-7" x1="51.49" y1="114.92" x2="51.49" y2="136.65"/><polygon class="cls-8" points="48.99 135.93 51.49 140.24 53.98 135.93 48.99 135.93"/><line class="cls-7" x1="115.41" y1="114.92" x2="115.41" y2="136.65"/><polygon class="cls-8" points="112.91 135.93 115.41 140.24 117.9 135.93 112.91 135.93"/><text class="cls-9" transform="translate(5.92 9.71)">Xilinx Zynq UltraScale+ RFSoC (Gen-1 ZU28DR Device)</text><rect class="cls-10" x="23.14" y="51.83" width="56.69" height="56.69" transform="translate(-28.69 131.67) rotate(-90)"/><text class="cls-6" transform="translate(33.26 77.28)">Cortex-R5<tspan x="6.45" y="9.6">CPU 0</tspan></text><line class="cls-7" x1="144.48" y1="212.75" x2="163.86" y2="212.75"/><polygon class="cls-8" points="163.13 215.24 167.45 212.75 163.13 210.25 163.13 215.24"/><text class="cls-6" transform="translate(49.93 152.15)">Low-Power Switch</text><line class="cls-7" x1="73.7" y1="233.41" x2="50.73" y2="233.41"/><polygon class="cls-8" points="51.46 230.92 47.15 233.41 51.46 235.91 51.46 230.92"/><rect class="cls-10" x="87.06" y="51.83" width="56.69" height="56.69" transform="translate(35.23 195.59) rotate(-90)"/><text class="cls-6" transform="translate(97.18 77.28)">Cortex-R5<tspan x="6.45" y="9.6">CPU 1</tspan></text><rect class="cls-11" x="73.96" y="180.85" width="18.73" height="105.13"/><text class="cls-6" transform="translate(85.1 268.99) rotate(-90)">General Peripherals</text><polyline class="cls-11" points="23.5 200.94 23.5 265.89 23.14 265.58 47.15 285.98 47.15 180.85 23.14 201.25"/><text class="cls-6" transform="translate(32.68 253.19) rotate(-90)">Multiplexed<tspan x="-1.78" y="9.6">Input/Output</tspan></text><line class="cls-7" x1="22.83" y1="233.41" x2="8.34" y2="233.41"/><rect class="cls-11" x="1.78" y="228.86" width="9.11" height="9.11"/><line class="cls-11" x1="1.78" y1="228.86" x2="10.9" y2="237.97"/><line class="cls-11" x1="10.9" y1="229.04" x2="1.78" y2="237.97"/><line class="cls-7" x1="83.45" y1="158.76" x2="83.45" y2="177.26"/><polygon class="cls-8" points="80.95 176.53 83.45 180.85 85.94 176.53 80.95 176.53"/><text class="cls-6" transform="translate(180.84 214.94)">Interconnect and Switches</text><rect class="cls-5" x="156.51" y="38.85" width="142.48" height="134.83" transform="translate(121.49 334.02) rotate(-90)"/><rect class="cls-12" x="167.45" y="51.83" width="56.69" height="56.69" transform="translate(115.61 275.97) rotate(-90)"/><text class="cls-6" transform="translate(175.56 77.28)">Cortex-A53<tspan x="8.45" y="9.6">CPU 0</tspan></text><rect class="cls-12" x="231.37" y="51.83" width="56.69" height="56.69" transform="translate(179.53 339.89) rotate(-90)"/><text class="cls-6" transform="translate(239.48 77.28)">Cortex-A53<tspan x="8.45" y="9.6">CPU 1</tspan></text><rect class="cls-12" x="167.45" y="114.92" width="56.69" height="56.69" transform="translate(52.52 339.06) rotate(-90)"/><text class="cls-6" transform="translate(175.56 140.37)">Cortex-A53<tspan x="8.45" y="9.6">CPU 2</tspan></text><rect class="cls-12" x="231.37" y="114.92" width="56.69" height="56.69" transform="translate(116.44 402.98) rotate(-90)"/><text class="cls-6" transform="translate(239.48 140.37)">Cortex-A53<tspan x="8.45" y="9.6">CPU 3</tspan></text><text class="cls-6" transform="translate(166.23 45.2)">APU</text><line class="cls-7" x1="227.75" y1="177.51" x2="227.75" y2="199.74"/><polygon class="cls-8" points="225.26 199.01 227.75 203.33 230.25 199.01 225.26 199.01"/><text class="cls-6" transform="translate(312.32 27.46)">Programmable Logic (PL)</text><line class="cls-7" x1="306.07" y1="228.39" x2="291.65" y2="228.39"/><polygon class="cls-8" points="292.38 225.9 288.06 228.39 292.38 230.88 292.38 225.9"/><line class="cls-7" x1="306.07" y1="240.24" x2="291.65" y2="240.24"/><polygon class="cls-8" points="292.38 237.75 288.06 240.24 292.38 242.73 292.38 237.75"/><line class="cls-7" x1="288.06" y1="252.01" x2="302.48" y2="252.01"/><polygon class="cls-8" points="301.75 254.5 306.07 252.01 301.75 249.52 301.75 254.5"/><rect class="cls-11" x="185.86" y="295.09" width="23.49" height="60.31" transform="translate(-127.64 522.84) rotate(-90)"/><rect class="cls-11" x="251.9" y="300.83" width="23.49" height="48.82" transform="translate(-61.59 588.89) rotate(-90)"/><text class="cls-6" transform="translate(254.98 322.59)">DDR<tspan x="-8.67" y="9.6">Controller</tspan></text><text class="cls-6" transform="translate(181.06 327.59)">PS-GTR</text><rect class="cls-11" x="158.5" y="262.37" width="48.05" height="30.15" transform="translate(-94.92 459.97) rotate(-90)"/><text class="cls-6" transform="translate(180.33 298.89) rotate(-90)">High Speed<tspan x="0.67" y="9.6">Peripherals</tspan></text><line class="cls-7" x1="182.52" y1="222.24" x2="182.52" y2="249.83"/><polygon class="cls-8" points="180.03 249.1 182.52 253.42 185.02 249.1 180.03 249.1"/><line class="cls-7" x1="250.99" y1="222.24" x2="250.99" y2="309.42"/><polygon class="cls-8" points="248.49 308.69 250.99 313.01 253.48 308.69 248.49 308.69"/><line class="cls-7" x1="182.52" y1="301.47" x2="182.52" y2="309.91"/><polygon class="cls-8" points="180.03 309.18 182.52 313.5 185.02 309.18 180.03 309.18"/><text class="cls-6" transform="translate(10.69 27.46)">Processing System (PS)</text><line class="cls-7" x1="197.6" y1="336.98" x2="197.6" y2="347.67"/><rect class="cls-11" x="193.04" y="343.12" width="9.11" height="9.11" transform="translate(-150.07 545.27) rotate(-90)"/><line class="cls-11" x1="193.04" y1="352.23" x2="202.16" y2="343.12"/><line class="cls-11" x1="193.22" y1="343.12" x2="202.16" y2="352.23"/><rect class="cls-11" x="101.9" y="300.53" width="29.63" height="55.54" transform="translate(-211.59 445.02) rotate(-90)"/><text class="cls-6" transform="translate(102.12 321.58)">Platform<tspan x="-8.46" y="9.6">Management</tspan><tspan x="7.78" y="19.2">Unit</tspan></text><line class="cls-7" x1="134.94" y1="313.49" x2="134.94" y2="305.05"/><polygon class="cls-8" points="137.44 305.78 134.94 301.46 132.45 305.78 137.44 305.78"/><rect class="cls-11" x="32.33" y="300.54" width="29.62" height="55.54" transform="translate(-281.16 375.45) rotate(-90)"/><text class="cls-6" transform="translate(23.66 321.59)">Configuration<tspan x="9.34" y="9.6">Security</tspan><tspan x="16.68" y="19.2">Unit</tspan></text><line class="cls-7" x1="47.15" y1="296.16" x2="120.82" y2="296.16"/><polygon class="cls-8" points="120.09 298.66 124.41 296.16 120.09 293.67 120.09 298.66"/><line class="cls-7" x1="47.45" y1="296.16" x2="47.45" y2="313.01"/><text class="cls-6" transform="translate(341.53 45.81)">RF Data Converters</text><rect class="cls-13" x="366.6" y="40.95" width="90.83" height="112.6" transform="translate(314.77 509.26) rotate(-90)"/><rect class="cls-14" x="374.85" y="47.85" width="90.83" height="112.6" transform="translate(316.11 524.42) rotate(-90)"/><polygon class="cls-11" points="476.31 143.57 491.26 136.38 476.31 129.18 434.82 129.18 434.82 143.57 476.31 143.57"/><text class="cls-6" transform="translate(439.31 139.24)">RF DAC 3</text><rect class="cls-15" x="403.61" y="128.45" width="6.64" height="14.93" transform="translate(271.01 542.84) rotate(-90)"/><line class="cls-7" x1="414.64" y1="135.92" x2="434.82" y2="135.92"/><text class="cls-6" transform="translate(379.95 127.21) rotate(-90)">RF DAC<tspan class="cls-16" x="29.78" y="0"> </tspan><tspan class="cls-17" x="31.86" y="0">T</tspan><tspan x="36.45" y="0">iles</tspan></text><polygon class="cls-11" points="476.08 122.07 491.03 114.87 476.08 107.68 434.59 107.68 434.59 122.07 476.08 122.07"/><text class="cls-6" transform="translate(439.07 117.73)">RF DAC 2</text><rect class="cls-15" x="403.37" y="106.95" width="6.64" height="14.93" transform="translate(292.28 521.1) rotate(-90)"/><line class="cls-7" x1="414.4" y1="114.41" x2="434.59" y2="114.41"/><polygon class="cls-11" points="476.55 100.56 491.5 93.37 476.55 86.17 435.06 86.17 435.06 100.56 476.55 100.56"/><text class="cls-6" transform="translate(439.54 96.23)">RF DAC 1</text><rect class="cls-15" x="403.84" y="85.44" width="6.64" height="14.93" transform="translate(314.26 500.07) rotate(-90)"/><line class="cls-7" x1="414.87" y1="92.91" x2="435.06" y2="92.91"/><polygon class="cls-11" points="476.31 79.06 491.26 71.86 476.31 64.67 434.82 64.67 434.82 79.06 476.31 79.06"/><text class="cls-6" transform="translate(439.31 74.72)">RF DAC 0</text><rect class="cls-15" x="403.61" y="63.94" width="6.64" height="14.93" transform="translate(335.52 478.33) rotate(-90)"/><line class="cls-7" x1="414.64" y1="71.4" x2="434.82" y2="71.4"/><rect class="cls-13" x="373.91" y="126.38" width="47.85" height="112.6" transform="translate(215.15 580.52) rotate(-90)"/><rect class="cls-13" x="381.37" y="132.87" width="47.85" height="112.6" transform="translate(216.12 594.47) rotate(-90)"/><rect class="cls-13" x="388.92" y="140.14" width="47.85" height="112.6" transform="translate(216.4 609.28) rotate(-90)"/><rect class="cls-14" x="396.34" y="147.46" width="47.85" height="112.6" transform="translate(216.51 624.02) rotate(-90)"/><text class="cls-6" transform="translate(379.95 217.86) rotate(-90)">RF<tspan class="cls-18" x="10.66" y="0"> </tspan><tspan x="12.45" y="0">ADC</tspan><tspan class="cls-17" x="6.37" y="9.6">T</tspan><tspan x="10.96" y="9.6">iles</tspan></text><polygon class="cls-11" points="476.55 221.66 491.5 214.46 476.55 207.26 435.06 207.26 435.06 221.66 476.55 221.66"/><text class="cls-6" transform="translate(439.76 217.32)">RF<tspan class="cls-18" x="10.66" y="0"> </tspan><tspan x="12.45" y="0">ADC 1</tspan></text><rect class="cls-15" x="403.84" y="206.53" width="6.64" height="14.93" transform="translate(193.16 621.16) rotate(-90)"/><line class="cls-7" x1="414.87" y1="214" x2="435.06" y2="214"/><polygon class="cls-11" points="476.31 200.15 491.26 192.96 476.31 185.76 434.82 185.76 434.82 200.15 476.31 200.15"/><text class="cls-6" transform="translate(439.53 195.82)">RF<tspan class="cls-18" x="10.66" y="0"> </tspan><tspan x="12.45" y="0">ADC 0</tspan></text><rect class="cls-15" x="403.61" y="185.03" width="6.64" height="14.93" transform="translate(214.43 599.42) rotate(-90)"/><line class="cls-7" x1="414.64" y1="192.49" x2="434.82" y2="192.49"/><rect class="cls-13" x="360.07" y="225.99" width="47.85" height="112.6" transform="translate(101.7 666.29) rotate(-90)"/><rect class="cls-13" x="363.84" y="229.73" width="47.85" height="112.6" transform="translate(101.74 673.79) rotate(-90)"/><rect class="cls-13" x="367.2" y="233.13" width="47.85" height="112.6" transform="translate(101.7 680.55) rotate(-90)"/><rect class="cls-13" x="370.88" y="236.86" width="47.85" height="112.6" transform="translate(101.64 687.96) rotate(-90)"/><rect class="cls-13" x="374.49" y="240.1" width="47.85" height="112.6" transform="translate(102.01 694.82) rotate(-90)"/><rect class="cls-13" x="377.85" y="243.5" width="47.85" height="112.6" transform="translate(101.97 701.58) rotate(-90)"/><rect class="cls-13" x="381.52" y="247.24" width="47.85" height="112.6" transform="translate(101.91 708.99) rotate(-90)"/><rect class="cls-14" x="385.19" y="251.25" width="47.85" height="112.6" transform="translate(101.56 716.66) rotate(-90)"/><text class="cls-6" transform="translate(393.66 309.95)">SD-FEC</text></svg>