<svg id="Layer_1" data-name="Layer 1" xmlns="http://www.w3.org/2000/svg" viewBox="0 0 778.37 437.5"><defs><style>.cls-1{fill:#ea6b66;stroke:#ea6b66;}.cls-1,.cls-11,.cls-2,.cls-3,.cls-4,.cls-5,.cls-6,.cls-9{stroke-miterlimit:10;}.cls-1,.cls-2{stroke-width:2px;}.cls-2{fill:#d6b656;stroke:#d6b656;}.cls-3{fill:#d9d9d9;stroke:#1d1d1b;}.cls-4{fill:#d0d2d3;}.cls-4,.cls-9{stroke:#231f20;}.cls-11,.cls-5,.cls-6,.cls-9{fill:none;}.cls-11,.cls-5,.cls-6{stroke:#000;}.cls-6{stroke-dasharray:6.03 6.03;}.cls-7,.cls-8{font-size:9px;fill:#1d1d1b;}.cls-7{font-family:ArialMT, Arial;}.cls-8{font-family:Arial-BoldMT, Arial;font-weight:700;}.cls-10{fill:#231f20;}.cls-11{stroke-dasharray:5.5 5.5;}</style></defs><rect class="cls-1" x="521.34" y="1" width="256.03" height="410.13"/><rect class="cls-2" x="1" y="169" width="365.55" height="98.05"/><rect class="cls-3" x="199.09" y="208.27" width="30" height="30" transform="translate(419.01 440.84) rotate(180)"/><rect class="cls-4" x="380.68" y="177.03" width="127.12" height="81.07"/><line class="cls-5" x1="580.66" y1="37.93" x2="580.66" y2="40.93"/><line class="cls-6" x1="580.66" y1="46.96" x2="580.66" y2="393.49"/><line class="cls-5" x1="580.66" y1="396.51" x2="580.66" y2="399.51"/><text class="cls-7" transform="translate(1 281.14)">Each sample is 16 bits wide.</text><text class="cls-8" transform="translate(15.82 183.96)">One Sample Per Clock Cycle<tspan x="0" y="10.8">Required Clock Frequency is 4096 MHz</tspan></text><rect class="cls-3" x="242.9" y="208.27" width="30" height="30" transform="translate(506.62 440.84) rotate(180)"/><rect class="cls-3" x="287.34" y="208.27" width="30" height="30" transform="translate(595.51 440.84) rotate(180)"/><rect class="cls-3" x="330.33" y="208.27" width="30" height="30" transform="translate(681.49 440.84) rotate(180)"/><rect class="cls-3" x="155.69" y="208.27" width="30" height="30" transform="translate(332.22 440.84) rotate(180)"/><rect class="cls-3" x="68.39" y="208.27" width="30" height="30" transform="translate(157.61 440.84) rotate(180)"/><rect class="cls-3" x="112.19" y="208.27" width="30" height="30" transform="translate(245.22 440.84) rotate(180)"/><rect class="cls-3" x="24.99" y="208.27" width="30" height="30" transform="translate(70.81 440.84) rotate(180)"/><rect class="cls-3" x="546.49" y="144.7" width="30" height="30" transform="translate(1113.82 313.7) rotate(180)"/><rect class="cls-3" x="546.49" y="187.08" width="30" height="30" transform="translate(1113.82 398.46) rotate(180)"/><rect class="cls-3" x="546.49" y="229.46" width="30" height="30" transform="translate(1113.82 483.22) rotate(180)"/><rect class="cls-3" x="546.49" y="271.84" width="30" height="30" transform="translate(1113.82 567.98) rotate(180)"/><rect class="cls-3" x="546.49" y="314.22" width="30" height="30" transform="translate(1113.82 652.74) rotate(180)"/><rect class="cls-3" x="546.49" y="356.6" width="30" height="30" transform="translate(1113.82 737.5) rotate(180)"/><rect class="cls-3" x="546.49" y="59.94" width="30" height="30" transform="translate(1113.82 144.18) rotate(180)"/><rect class="cls-3" x="546.49" y="102.32" width="30" height="30" transform="translate(1113.82 228.94) rotate(180)"/><line class="cls-9" x1="351.16" y1="217.57" x2="373.51" y2="217.57"/><polygon class="cls-10" points="372.05 222.55 380.68 217.57 372.05 212.58 372.05 222.55"/><text class="cls-7" transform="translate(419.22 220.3)">Deserialise</text><rect class="cls-3" x="603.15" y="144.7" width="30" height="30" transform="translate(1227.14 313.7) rotate(180)"/><rect class="cls-3" x="603.15" y="187.08" width="30" height="30" transform="translate(1227.14 398.46) rotate(180)"/><rect class="cls-3" x="603.15" y="229.46" width="30" height="30" transform="translate(1227.14 483.22) rotate(180)"/><rect class="cls-3" x="603.15" y="271.84" width="30" height="30" transform="translate(1227.14 567.98) rotate(180)"/><rect class="cls-3" x="603.15" y="314.22" width="30" height="30" transform="translate(1227.14 652.74) rotate(180)"/><rect class="cls-3" x="603.15" y="356.6" width="30" height="30" transform="translate(1227.14 737.5) rotate(180)"/><rect class="cls-3" x="603.15" y="59.94" width="30" height="30" transform="translate(1227.14 144.18) rotate(180)"/><rect class="cls-3" x="603.15" y="102.32" width="30" height="30" transform="translate(1227.14 228.94) rotate(180)"/><rect class="cls-3" x="659.81" y="144.7" width="30" height="30" transform="translate(1340.45 313.7) rotate(180)"/><rect class="cls-3" x="659.81" y="187.08" width="30" height="30" transform="translate(1340.45 398.46) rotate(180)"/><rect class="cls-3" x="659.81" y="229.46" width="30" height="30" transform="translate(1340.45 483.22) rotate(180)"/><rect class="cls-3" x="659.81" y="271.84" width="30" height="30" transform="translate(1340.45 567.98) rotate(180)"/><rect class="cls-3" x="659.81" y="314.22" width="30" height="30" transform="translate(1340.45 652.74) rotate(180)"/><rect class="cls-3" x="659.81" y="356.6" width="30" height="30" transform="translate(1340.45 737.5) rotate(180)"/><rect class="cls-3" x="659.81" y="59.94" width="30" height="30" transform="translate(1340.45 144.18) rotate(180)"/><rect class="cls-3" x="659.81" y="102.32" width="30" height="30" transform="translate(1340.45 228.94) rotate(180)"/><rect class="cls-3" x="716.47" y="144.7" width="30" height="30" transform="translate(1453.77 313.7) rotate(180)"/><rect class="cls-3" x="716.47" y="187.08" width="30" height="30" transform="translate(1453.77 398.46) rotate(180)"/><rect class="cls-3" x="716.47" y="229.46" width="30" height="30" transform="translate(1453.77 483.22) rotate(180)"/><rect class="cls-3" x="716.47" y="271.84" width="30" height="30" transform="translate(1453.77 567.98) rotate(180)"/><rect class="cls-3" x="716.47" y="314.22" width="30" height="30" transform="translate(1453.77 652.74) rotate(180)"/><rect class="cls-3" x="716.47" y="356.6" width="30" height="30" transform="translate(1453.77 737.5) rotate(180)"/><rect class="cls-3" x="716.47" y="59.94" width="30" height="30" transform="translate(1453.77 144.18) rotate(180)"/><rect class="cls-3" x="716.47" y="102.32" width="30" height="30" transform="translate(1453.77 228.94) rotate(180)"/><line class="cls-5" x1="637.31" y1="37.93" x2="637.31" y2="40.93"/><line class="cls-6" x1="637.31" y1="46.96" x2="637.31" y2="393.49"/><line class="cls-5" x1="637.31" y1="396.51" x2="637.31" y2="399.51"/><line class="cls-5" x1="693.97" y1="37.24" x2="693.97" y2="40.24"/><line class="cls-6" x1="693.97" y1="46.26" x2="693.97" y2="392.8"/><line class="cls-5" x1="693.97" y1="395.81" x2="693.97" y2="398.81"/><line class="cls-5" x1="750.63" y1="37.24" x2="750.63" y2="40.24"/><line class="cls-6" x1="750.63" y1="46.26" x2="750.63" y2="392.8"/><line class="cls-5" x1="750.63" y1="395.81" x2="750.63" y2="398.81"/><line class="cls-5" x1="314.66" y1="202.57" x2="314.66" y2="205.57"/><line class="cls-11" x1="314.66" y1="211.07" x2="314.66" y2="252.35"/><line class="cls-5" x1="314.66" y1="255.1" x2="314.66" y2="258.1"/><line class="cls-5" x1="270.95" y1="202.57" x2="270.95" y2="205.57"/><line class="cls-11" x1="270.95" y1="211.07" x2="270.95" y2="252.35"/><line class="cls-5" x1="270.95" y1="255.1" x2="270.95" y2="258.1"/><line class="cls-5" x1="226.83" y1="202.57" x2="226.83" y2="205.57"/><line class="cls-11" x1="226.83" y1="211.07" x2="226.83" y2="252.35"/><line class="cls-5" x1="226.83" y1="255.1" x2="226.83" y2="258.1"/><line class="cls-5" x1="183.78" y1="202.57" x2="183.78" y2="205.57"/><line class="cls-11" x1="183.78" y1="211.07" x2="183.78" y2="252.35"/><line class="cls-5" x1="183.78" y1="255.1" x2="183.78" y2="258.1"/><line class="cls-5" x1="139.78" y1="202.57" x2="139.78" y2="205.57"/><line class="cls-11" x1="139.78" y1="211.07" x2="139.78" y2="252.35"/><line class="cls-5" x1="139.78" y1="255.1" x2="139.78" y2="258.1"/><line class="cls-5" x1="96.12" y1="202.57" x2="96.12" y2="205.57"/><line class="cls-11" x1="96.12" y1="211.07" x2="96.12" y2="252.35"/><line class="cls-5" x1="96.12" y1="255.1" x2="96.12" y2="258.1"/><line class="cls-5" x1="52.52" y1="202.57" x2="52.52" y2="205.57"/><line class="cls-11" x1="52.52" y1="211.07" x2="52.52" y2="252.35"/><line class="cls-5" x1="52.52" y1="255.1" x2="52.52" y2="258.1"/><line class="cls-9" x1="507.81" y1="216.67" x2="530.15" y2="216.67"/><polygon class="cls-10" points="528.69 221.66 537.33 216.67 528.69 211.68 528.69 221.66"/><text class="cls-8" transform="translate(537.33 17.59)">Eight Samples Per Clock Cycle<tspan x="0" y="10.8">Required Clock Frequency is 512 MHz</tspan></text><text class="cls-7" transform="translate(521.34 423.78)">Each sample is 16 bits wide.<tspan x="0" y="10.8">Each SSR sample is 128 bits wide.</tspan></text></svg>