<svg id="Layer_1" data-name="Layer 1" xmlns="http://www.w3.org/2000/svg" viewBox="0 0 689.59 390.47"><defs><style>.cls-1,.cls-2{fill:#82b366;stroke:#231f20;}.cls-1,.cls-11,.cls-2,.cls-3,.cls-5,.cls-7{stroke-miterlimit:10;}.cls-1{opacity:0.5;}.cls-3,.cls-9{fill:none;}.cls-11,.cls-3,.cls-5,.cls-7,.cls-8{stroke:#1d1d1b;}.cls-10,.cls-11,.cls-13,.cls-4,.cls-6{fill:#1d1d1b;}.cls-5{fill:#d9d9d9;}.cls-10,.cls-6{isolation:isolate;}.cls-10,.cls-13,.cls-6{font-size:9px;}.cls-12,.cls-13,.cls-6{font-family:ArialMT, Arial;}.cls-7,.cls-8{fill:#fff;}.cls-8{stroke-miterlimit:10;}.cls-10{font-family:Arial-BoldMT, Arial;font-weight:700;}.cls-12{font-size:9px;fill:#231f20;}.cls-14{letter-spacing:-0.04em;}.cls-15{letter-spacing:-0.02em;}.cls-16{letter-spacing:-0.02em;}.cls-17{letter-spacing:-0.07em;}.cls-18{letter-spacing:0em;}.cls-19{letter-spacing:0em;}</style></defs><rect class="cls-1" x="309.51" y="0.5" width="302.58" height="381.5"/><rect class="cls-2" x="300.52" y="7.14" width="304.96" height="382.83"/><line class="cls-3" x1="280.74" y1="109.65" x2="359.2" y2="109.65"/><polygon class="cls-4" points="281.47 112.14 277.15 109.65 281.47 107.15 281.47 112.14"/><rect class="cls-5" x="359.2" y="36.59" width="232.87" height="105.8"/><text class="cls-6" transform="translate(364.86 48.19)">RF DAC Block 1</text><rect class="cls-7" x="494.9" y="90.9" width="23.53" height="17.12"/><ellipse class="cls-8" cx="535.42" cy="74.89" rx="5.87" ry="6.3" transform="translate(98.82 396.82) rotate(-45)"/><line class="cls-3" x1="532.54" y1="69.02" x2="528.16" y2="73.4"/><line class="cls-3" x1="528.19" y1="68.98" x2="532.57" y2="73.36"/><ellipse class="cls-8" cx="535.5" cy="131.84" rx="5.87" ry="6.3" transform="translate(58.57 413.55) rotate(-45)"/><line class="cls-3" x1="528.3" y1="130.27" x2="532.68" y2="125.89"/><line class="cls-3" x1="532.64" y1="130.31" x2="528.27" y2="125.93"/><line class="cls-9" x1="530.49" y1="121.59" x2="530.49" y2="103.79"/><line class="cls-3" x1="530.49" y1="118.01" x2="530.49" y2="103.79"/><polygon class="cls-4" points="528 117.28 530.49 121.59 532.98 117.28 528 117.28"/><line class="cls-3" x1="530.49" y1="103.79" x2="518.84" y2="103.79"/><text class="cls-6" transform="translate(496.71 102.38)">NCO</text><line class="cls-3" x1="530.49" y1="95.06" x2="518.84" y2="95.06"/><line class="cls-9" x1="530.49" y1="77.26" x2="530.49" y2="95.06"/><line class="cls-3" x1="530.49" y1="80.85" x2="530.49" y2="95.06"/><polygon class="cls-4" points="532.98 81.58 530.49 77.27 528 81.58 532.98 81.58"/><rect class="cls-7" x="558.67" y="119.83" width="16.58" height="16.58"/><line class="cls-9" x1="566.96" y1="122.64" x2="566.96" y2="133.5"/><line class="cls-3" x1="566.96" y1="126.23" x2="566.96" y2="133.5"/><polygon class="cls-4" points="569.46 126.97 566.96 122.64 564.47 126.97 569.46 126.97"/><line class="cls-9" x1="537.11" y1="128.08" x2="558.67" y2="128.08"/><line class="cls-3" x1="540.7" y1="128.08" x2="558.67" y2="128.08"/><polygon class="cls-4" points="541.42 125.59 537.11 128.09 541.42 130.59 541.42 125.59"/><rect class="cls-7" x="558.67" y="62.92" width="16.58" height="16.58"/><line class="cls-9" x1="566.96" y1="65.73" x2="566.96" y2="76.59"/><line class="cls-3" x1="566.96" y1="69.32" x2="566.96" y2="76.59"/><polygon class="cls-4" points="569.46 70.06 566.96 65.73 564.47 70.06 569.46 70.06"/><line class="cls-9" x1="536" y1="71.17" x2="558.67" y2="71.17"/><line class="cls-3" x1="539.59" y1="71.17" x2="558.67" y2="71.17"/><polygon class="cls-4" points="540.32 68.69 536 71.17 540.32 73.67 540.32 68.69"/><line class="cls-9" x1="575.25" y1="128.12" x2="584.31" y2="128.12"/><line class="cls-3" x1="578.84" y1="128.12" x2="584.31" y2="128.12"/><polygon class="cls-4" points="579.57 125.64 575.25 128.13 579.57 130.62 579.57 125.64"/><rect class="cls-7" x="588.59" y="95.55" width="6.99" height="6.99"/><line class="cls-9" x1="575.25" y1="71.25" x2="584.31" y2="71.25"/><line class="cls-3" x1="578.84" y1="71.25" x2="584.31" y2="71.25"/><polygon class="cls-4" points="579.57 68.75 575.25 71.25 579.57 73.75 579.57 68.75"/><line class="cls-9" x1="595.57" y1="99.04" x2="685.63" y2="99.04"/><line class="cls-9" x1="481.74" y1="105.71" x2="481.74" y2="128.12"/><line class="cls-3" x1="481.74" y1="109.3" x2="481.74" y2="128.12"/><polygon class="cls-4" points="484.23 110.03 481.74 105.72 479.25 110.03 484.23 110.03"/><line class="cls-9" x1="481.74" y1="93.97" x2="481.74" y2="71.25"/><line class="cls-3" x1="481.74" y1="90.38" x2="481.74" y2="71.25"/><polygon class="cls-4" points="479.25 89.66 481.74 93.97 484.23 89.66 479.25 89.66"/><line class="cls-3" x1="524.37" y1="71.25" x2="481.74" y2="71.25"/><rect class="cls-7" x="355.71" y="96.4" width="6.99" height="6.99"/><ellipse class="cls-7" cx="481.74" cy="99.84" rx="6.3" ry="5.87"/><line class="cls-3" x1="481.74" y1="96.79" x2="481.74" y2="102.99"/><line class="cls-3" x1="478.64" y1="99.84" x2="484.84" y2="99.84"/><line class="cls-3" x1="524.37" y1="128.12" x2="481.74" y2="128.12"/><line class="cls-3" x1="381.69" y1="99.89" x2="366.29" y2="99.89"/><polygon class="cls-4" points="367.02 102.39 362.7 99.89 367.02 97.41 367.02 102.39"/><rect class="cls-7" x="377.57" y="91.33" width="81.87" height="17.12"/><text class="cls-6" transform="translate(380.38 101.96)">Further Processing</text><line class="cls-3" x1="475.44" y1="99.45" x2="463.83" y2="99.45"/><polygon class="cls-4" points="464.56 101.95 460.24 99.45 464.56 96.97 464.56 101.95"/><text class="cls-10" transform="translate(549.13 48.19)">Follower</text><line class="cls-3" x1="584.31" y1="99.04" x2="584.31" y2="70.77"/><line class="cls-3" x1="588.77" y1="99.04" x2="583.81" y2="99.04"/><line class="cls-3" x1="584.31" y1="128.12" x2="584.31" y2="99.04"/><polygon class="cls-7" points="229.11 337.79 209.56 325.12 229.11 312.46 283.37 312.46 283.37 337.79 229.11 337.79"/><circle class="cls-11" cx="278.78" cy="317.05" r="0.38"/><circle class="cls-11" cx="280.14" cy="315.76" r="0.38"/><circle class="cls-11" cx="281.59" cy="314.38" r="0.38"/><polygon class="cls-7" points="229.11 294.2 209.56 281.54 229.11 268.87 283.37 268.87 283.37 294.2 229.11 294.2"/><circle class="cls-11" cx="278.78" cy="273.47" r="0.38"/><circle class="cls-11" cx="280.14" cy="272.17" r="0.38"/><circle class="cls-11" cx="281.59" cy="270.79" r="0.38"/><polygon class="cls-7" points="228.94 159.12 209.39 146.45 228.94 133.79 283.19 133.79 283.19 159.12 228.94 159.12"/><circle class="cls-11" cx="278.6" cy="138.38" r="0.38"/><circle class="cls-11" cx="279.97" cy="137.09" r="0.38"/><circle class="cls-11" cx="281.42" cy="135.71" r="0.38"/><polygon class="cls-7" points="228.48 115.75 208.93 103.08 228.48 90.42 282.74 90.42 282.74 115.75 228.48 115.75"/><text class="cls-12" transform="translate(311.47 22.68)">Quad Block RF DAC Tile</text><text class="cls-12" transform="translate(643.07 97.4)">AXI-Stream<tspan x="0.25" y="10.8">Real / Imag</tspan></text><rect class="cls-5" x="318.91" y="89.1" width="232.87" height="105.8"/><text class="cls-6" transform="translate(324.57 100.7)">RF DAC Block 0</text><rect class="cls-7" x="454.61" y="143.41" width="23.53" height="17.12"/><ellipse class="cls-8" cx="495.14" cy="127.4" rx="5.87" ry="6.3" transform="translate(49.89 383.72) rotate(-45)"/><line class="cls-3" x1="492.25" y1="121.53" x2="487.87" y2="125.91"/><line class="cls-3" x1="487.9" y1="121.49" x2="492.28" y2="125.87"/><ellipse class="cls-8" cx="495.21" cy="184.35" rx="5.87" ry="6.3" transform="translate(9.65 400.45) rotate(-45)"/><line class="cls-3" x1="488.01" y1="182.78" x2="492.39" y2="178.4"/><line class="cls-3" x1="492.35" y1="182.82" x2="487.98" y2="178.44"/><line class="cls-9" x1="490.2" y1="174.1" x2="490.2" y2="156.3"/><line class="cls-3" x1="490.2" y1="170.52" x2="490.2" y2="156.3"/><polygon class="cls-4" points="487.71 169.79 490.2 174.1 492.69 169.79 487.71 169.79"/><line class="cls-3" x1="490.2" y1="156.3" x2="478.55" y2="156.3"/><text class="cls-6" transform="translate(456.43 154.89)">NCO</text><line class="cls-3" x1="490.2" y1="147.57" x2="478.55" y2="147.57"/><line class="cls-9" x1="490.2" y1="129.77" x2="490.2" y2="147.57"/><line class="cls-3" x1="490.2" y1="133.36" x2="490.2" y2="147.57"/><polygon class="cls-4" points="492.69 134.09 490.2 129.77 487.71 134.09 492.69 134.09"/><rect class="cls-7" x="518.38" y="172.34" width="16.58" height="16.58"/><line class="cls-9" x1="526.67" y1="175.15" x2="526.67" y2="186.01"/><line class="cls-3" x1="526.67" y1="178.74" x2="526.67" y2="186.01"/><polygon class="cls-4" points="529.17 179.47 526.67 175.15 524.18 179.47 529.17 179.47"/><line class="cls-9" x1="496.82" y1="180.59" x2="518.38" y2="180.59"/><line class="cls-3" x1="500.41" y1="180.59" x2="518.38" y2="180.59"/><polygon class="cls-4" points="501.13 178.1 496.82 180.59 501.13 183.09 501.13 178.1"/><rect class="cls-7" x="518.38" y="115.43" width="16.58" height="16.58"/><line class="cls-9" x1="526.67" y1="118.24" x2="526.67" y2="129.1"/><line class="cls-3" x1="526.67" y1="121.83" x2="526.67" y2="129.1"/><polygon class="cls-4" points="529.17 122.56 526.67 118.24 524.18 122.56 529.17 122.56"/><line class="cls-9" x1="495.71" y1="123.68" x2="518.38" y2="123.68"/><line class="cls-3" x1="499.3" y1="123.68" x2="518.38" y2="123.68"/><polygon class="cls-4" points="500.03 121.19 495.71 123.68 500.03 126.18 500.03 121.19"/><line class="cls-9" x1="534.96" y1="180.63" x2="544.02" y2="180.63"/><line class="cls-3" x1="538.55" y1="180.63" x2="544.02" y2="180.63"/><polygon class="cls-4" points="539.28 178.14 534.96 180.63 539.28 183.12 539.28 178.14"/><rect class="cls-7" x="548.3" y="148.06" width="6.99" height="6.99"/><line class="cls-9" x1="534.96" y1="123.76" x2="544.02" y2="123.76"/><line class="cls-3" x1="538.55" y1="123.76" x2="544.02" y2="123.76"/><polygon class="cls-4" points="539.28 121.26 534.96 123.76 539.28 126.25 539.28 121.26"/><line class="cls-9" x1="555.28" y1="151.55" x2="645.34" y2="151.55"/><line class="cls-9" x1="441.45" y1="158.22" x2="441.45" y2="180.63"/><line class="cls-3" x1="441.45" y1="161.81" x2="441.45" y2="180.63"/><polygon class="cls-4" points="443.94 162.53 441.45 158.22 438.96 162.53 443.94 162.53"/><line class="cls-9" x1="441.45" y1="146.48" x2="441.45" y2="123.76"/><line class="cls-3" x1="441.45" y1="142.89" x2="441.45" y2="123.76"/><polygon class="cls-4" points="438.96 142.16 441.45 146.48 443.94 142.16 438.96 142.16"/><line class="cls-3" x1="484.08" y1="123.76" x2="441.45" y2="123.76"/><rect class="cls-7" x="315.42" y="148.91" width="6.99" height="6.99"/><ellipse class="cls-7" cx="441.45" cy="152.35" rx="6.3" ry="5.87"/><line class="cls-3" x1="441.45" y1="149.3" x2="441.45" y2="155.5"/><line class="cls-3" x1="438.35" y1="152.35" x2="444.55" y2="152.35"/><line class="cls-3" x1="484.08" y1="180.63" x2="441.45" y2="180.63"/><line class="cls-3" x1="341.4" y1="152.4" x2="326" y2="152.4"/><polygon class="cls-4" points="326.73 154.89 322.41 152.4 326.73 149.91 326.73 154.89"/><rect class="cls-7" x="337.28" y="143.84" width="81.87" height="17.12"/><text class="cls-6" transform="translate(340.1 154.46)">Further Processing</text><line class="cls-3" x1="435.15" y1="151.96" x2="423.54" y2="151.96"/><polygon class="cls-4" points="424.27 154.46 419.95 151.96 424.27 149.47 424.27 154.46"/><text class="cls-10" transform="translate(508.84 100.7)">Follower</text><line class="cls-3" x1="544.02" y1="151.55" x2="544.02" y2="123.28"/><line class="cls-3" x1="548.48" y1="151.55" x2="543.52" y2="151.55"/><line class="cls-3" x1="544.02" y1="180.63" x2="544.02" y2="151.55"/><line class="cls-3" x1="215.74" y1="278.27" x2="70.9" y2="278.27"/><line class="cls-3" x1="215.74" y1="298.11" x2="70.9" y2="298.11"/><line class="cls-3" x1="259.25" y1="271.54" x2="259.25" y2="193.54"/><polygon class="cls-4" points="261.74 270.81 259.25 275.13 256.75 270.81 261.74 270.81"/><line class="cls-3" x1="233.84" y1="271.54" x2="233.84" y2="193.54"/><polygon class="cls-4" points="236.33 270.81 233.84 275.13 231.34 270.81 236.33 270.81"/><line class="cls-3" x1="137.77" y1="213.7" x2="137.77" y2="231.93"/><line class="cls-3" x1="281.04" y1="331.15" x2="315.13" y2="331.15"/><polygon class="cls-4" points="281.77 333.64 277.45 331.15 281.77 328.65 281.77 333.64"/><polygon class="cls-7" points="222.89 122.04 203.35 109.38 222.89 96.71 277.15 96.71 277.15 122.04 222.89 122.04"/><text class="cls-13" transform="translate(229.38 106.76)">RF-DAC<tspan x="0.24" y="10.8">Channel</tspan></text><polyline class="cls-7" points="259.35 260.84 250.84 247.02 267.66 247.02 259.15 260.84"/><line class="cls-3" x1="311.25" y1="222.62" x2="212.65" y2="222.62"/><polygon class="cls-4" points="310.52 220.12 314.83 222.62 310.52 225.11 310.52 220.12"/><polyline class="cls-7" points="212.65 213.01 212.65 232.22 212.8 232.13 202.74 238.17 202.74 207.06 212.8 213.1"/><polyline class="cls-7" points="233.93 260.84 225.42 247.02 242.25 247.02 233.74 260.84"/><line class="cls-3" x1="259.06" y1="169.14" x2="259.06" y2="179.72"/><polygon class="cls-4" points="256.57 169.87 259.06 165.56 261.56 169.87 256.57 169.87"/><line class="cls-3" x1="233.65" y1="169.14" x2="233.65" y2="179.72"/><polygon class="cls-4" points="231.16 169.87 233.65 165.56 236.14 169.87 231.16 169.87"/><polyline class="cls-7" points="233.55 179.72 242.06 193.54 225.24 193.54 233.75 179.72"/><polyline class="cls-7" points="258.96 179.72 267.48 193.54 250.65 193.54 259.16 179.72"/><circle class="cls-11" cx="233.84" cy="222.62" r="2.16"/><circle class="cls-11" cx="259.06" cy="222.62" r="2.16"/><rect class="cls-7" x="162.36" y="205.65" width="17.12" height="23.53" transform="translate(-51.55 384.61) rotate(-90)"/><text class="cls-13" transform="translate(158.03 216.09)">PL<tspan class="cls-14" x="11.01" y="0">L</tspan></text><line class="cls-3" x1="199.24" y1="213.7" x2="177.63" y2="213.7"/><polygon class="cls-4" points="198.51 211.21 202.82 213.7 198.51 216.19 198.51 211.21"/><line class="cls-3" x1="199.24" y1="231.93" x2="137.77" y2="231.93"/><polygon class="cls-4" points="198.51 229.43 202.82 231.93 198.51 234.42 198.51 229.43"/><line class="cls-3" x1="150.51" y1="213.7" x2="137.77" y2="213.7"/><polygon class="cls-4" points="149.78 211.21 154.1 213.7 149.78 216.19 149.78 211.21"/><line class="cls-3" x1="125.01" y1="222.81" x2="137.35" y2="222.81"/><rect class="cls-7" x="68.95" y="298.33" width="6.99" height="6.99" transform="translate(-234.42 370.56) rotate(-90)"/><polyline class="cls-3" points="123.19 349.01 123.19 352.48 126.6 353.99 126.6 353.89 119.77 356.48 119.77 356.47 126.6 359.05 126.6 358.89 119.77 361.48 119.77 361.47 126.6 364.05 123.19 365.56 123.3 365.51 123.3 368.83"/><rect class="cls-7" x="68.95" y="278.5" width="6.99" height="6.99" transform="translate(-214.6 350.74) rotate(-90)"/><polyline class="cls-3" points="89.55 212.9 89.55 216.37 92.97 217.88 92.97 217.79 86.13 220.37 86.13 220.36 92.97 222.94 92.97 222.79 86.13 225.37 86.13 225.36 92.97 227.94 89.55 229.45 89.67 229.4 89.67 232.72"/><polyline class="cls-7" points="125.63 222.64 101.08 237.75 101.08 207.87 125.63 222.99"/><line class="cls-3" x1="101.08" y1="212.88" x2="70.9" y2="212.88"/><line class="cls-3" x1="101.08" y1="232.72" x2="70.9" y2="232.72"/><rect class="cls-7" x="68.95" y="232.94" width="6.99" height="6.99" transform="translate(-169.03 305.17) rotate(-90)"/><rect class="cls-7" x="68.95" y="213.12" width="6.99" height="6.99" transform="translate(-149.21 285.35) rotate(-90)"/><circle class="cls-7" cx="217.48" cy="118.6" r="2.16"/><circle class="cls-7" cx="217.48" cy="100.92" r="2.16"/><text class="cls-13" transform="translate(15.52 301.31)">VOUT_<tspan class="cls-15" x="30.01" y="0">P</tspan></text><text class="cls-13" transform="translate(15.85 281.47)">VOUT_N</text><text class="cls-13" transform="translate(0 235.64)">DAC_CLK_<tspan class="cls-16" x="46.52" y="0">P</tspan></text><text class="cls-13" transform="translate(0.34 215.8)">DAC_CLK_N</text><line class="cls-3" x1="283.19" y1="287.81" x2="314.96" y2="287.81"/><line class="cls-3" x1="281.04" y1="152.75" x2="315.13" y2="152.75"/><polygon class="cls-4" points="281.77 155.24 277.45 152.75 281.77 150.26 281.77 155.24"/><polygon class="cls-7" points="223.19 165.42 203.65 152.75 223.19 140.09 277.45 140.09 277.45 165.42 223.19 165.42"/><text class="cls-13" transform="translate(229.38 150.86)">RF-DAC<tspan x="0.24" y="10.8">Channel</tspan></text><circle class="cls-7" cx="217.78" cy="161.97" r="2.16"/><circle class="cls-7" cx="217.78" cy="144.29" r="2.16"/><polygon class="cls-7" points="223.15 300.46 203.6 287.8 223.15 275.13 277.41 275.13 277.41 300.46 223.15 300.46"/><text class="cls-13" transform="translate(229.46 285.9)">RF-DAC<tspan x="0.24" y="10.8">Channel</tspan></text><circle class="cls-7" cx="217.74" cy="297.01" r="2.16"/><circle class="cls-7" cx="217.74" cy="279.33" r="2.16"/><polygon class="cls-7" points="223.32 344.06 203.78 331.4 223.32 318.73 277.58 318.73 277.58 344.06 223.32 344.06"/><text class="cls-13" transform="translate(229.29 329.51)">RF-DAC<tspan x="0.24" y="10.8">Channel</tspan></text><circle class="cls-7" cx="217.91" cy="340.61" r="2.16"/><circle class="cls-7" cx="217.91" cy="322.94" r="2.16"/><line class="cls-3" x1="215.94" y1="321.92" x2="71.1" y2="321.92"/><line class="cls-3" x1="215.94" y1="340.76" x2="71.1" y2="340.76"/><rect class="cls-7" x="69.15" y="340.98" width="6.99" height="6.99" transform="translate(-276.87 413.41) rotate(-90)"/><polyline class="cls-3" points="101.08 349.01 101.08 352.48 104.5 353.99 104.5 353.89 97.66 356.48 97.66 356.47 104.5 359.05 104.5 358.89 97.66 361.48 97.66 361.47 104.5 364.05 101.08 365.56 101.19 365.51 101.19 368.83"/><rect class="cls-7" x="69.15" y="322.15" width="6.99" height="6.99" transform="translate(-258.05 394.59) rotate(-90)"/><text class="cls-13" transform="translate(15.32 343.97)">VOUT_<tspan class="cls-15" x="30.01" y="0">P</tspan></text><text class="cls-13" transform="translate(15.66 325.12)">VOUT_N</text><line class="cls-3" x1="215.42" y1="100.19" x2="70.57" y2="100.19"/><line class="cls-3" x1="215.42" y1="120.03" x2="70.57" y2="120.03"/><rect class="cls-7" x="68.63" y="120.25" width="6.99" height="6.99" transform="translate(-56.67 192.16) rotate(-90)"/><rect class="cls-7" x="68.63" y="100.43" width="6.99" height="6.99" transform="translate(-36.85 172.33) rotate(-90)"/><text class="cls-13" transform="translate(16.12 122.05)">VOUT_<tspan class="cls-15" x="30.01" y="0">P</tspan></text><text class="cls-13" transform="translate(16.45 102.21)">VOUT_N</text><line class="cls-3" x1="215.62" y1="143.84" x2="70.77" y2="143.84"/><line class="cls-3" x1="215.62" y1="162.68" x2="70.77" y2="162.68"/><rect class="cls-7" x="68.82" y="162.9" width="6.99" height="6.99" transform="translate(-99.12 235) rotate(-90)"/><rect class="cls-7" x="68.82" y="144.08" width="6.99" height="6.99" transform="translate(-80.3 216.18) rotate(-90)"/><text class="cls-13" transform="translate(15.92 164.7)">VOUT_<tspan class="cls-15" x="30.01" y="0">P</tspan></text><text class="cls-13" transform="translate(16.26 145.86)">VOUT_N</text><polyline class="cls-3" points="166.88 349.01 166.88 352.48 170.29 353.99 170.29 353.89 163.46 356.48 163.46 356.47 170.29 359.05 170.29 358.89 163.46 361.48 163.46 361.47 170.29 364.05 166.88 365.56 166.99 365.51 166.99 368.83"/><polyline class="cls-3" points="144.77 349.01 144.77 352.48 148.19 353.99 148.19 353.89 141.35 356.48 141.35 356.47 148.19 359.05 148.19 358.89 141.35 361.48 141.35 361.47 148.19 364.05 144.77 365.56 144.88 365.51 144.88 368.83"/><line class="cls-3" x1="166.88" y1="349.01" x2="166.88" y2="278.29"/><line class="cls-3" x1="144.77" y1="349.01" x2="144.77" y2="298.11"/><line class="cls-3" x1="123.19" y1="349.01" x2="123.19" y2="321.94"/><line class="cls-3" x1="101.08" y1="349.01" x2="101.08" y2="340.61"/><line class="cls-3" x1="190.94" y1="371.83" x2="71.1" y2="371.83"/><line class="cls-3" x1="166.98" y1="371.83" x2="166.98" y2="368.83"/><line class="cls-3" x1="144.88" y1="371.83" x2="144.88" y2="368.83"/><line class="cls-3" x1="123.3" y1="371.77" x2="123.3" y2="368.77"/><line class="cls-3" x1="101.18" y1="371.76" x2="101.18" y2="368.76"/><rect class="cls-7" x="69.15" y="372.05" width="6.99" height="6.99" transform="translate(-307.94 444.48) rotate(-90)"/><text class="cls-13" transform="translate(6.58 375.33)">DAC_<tspan class="cls-17" x="24.01" y="0">A</tspan><tspan class="cls-18" x="29.34" y="0">VT</tspan><tspan class="cls-15" x="40.84" y="0">T</tspan></text><circle class="cls-11" cx="166.88" cy="278.27" r="1.64"/><circle class="cls-11" cx="144.77" cy="298.11" r="1.64"/><circle class="cls-11" cx="123.19" cy="321.94" r="1.64"/><circle class="cls-11" cx="101.08" cy="340.76" r="1.64"/><polyline class="cls-3" points="138.85 92.32 138.85 88.85 135.44 87.34 135.44 87.43 142.27 84.85 142.27 84.86 135.44 82.28 135.44 82.43 142.27 79.85 142.27 79.86 135.44 77.28 138.85 75.77 138.74 75.82 138.74 72.5"/><polyline class="cls-3" points="160.96 92.32 160.96 88.85 157.54 87.34 157.54 87.43 164.38 84.85 164.38 84.86 157.54 82.28 157.54 82.43 164.38 79.85 164.38 79.86 157.54 77.28 160.96 75.77 160.85 75.82 160.85 72.5"/><polyline class="cls-3" points="95.16 92.32 95.16 88.85 91.74 87.34 91.74 87.43 98.58 84.85 98.58 84.86 91.74 82.28 91.74 82.43 98.58 79.85 98.58 79.86 91.74 77.28 95.16 75.77 95.05 75.82 95.05 72.5"/><polyline class="cls-3" points="117.27 92.32 117.27 88.85 113.85 87.34 113.85 87.43 120.69 84.85 120.69 84.86 113.85 82.28 113.85 82.43 120.69 79.85 120.69 79.86 113.85 77.28 117.27 75.77 117.16 75.82 117.16 72.5"/><line class="cls-3" x1="95.16" y1="92.32" x2="95.16" y2="163.04"/><line class="cls-3" x1="117.27" y1="92.32" x2="117.27" y2="143.22"/><line class="cls-3" x1="138.85" y1="92.32" x2="138.85" y2="119.39"/><line class="cls-3" x1="160.96" y1="92.32" x2="160.96" y2="100.71"/><line class="cls-3" x1="71.1" y1="69.49" x2="190.94" y2="69.49"/><line class="cls-3" x1="95.06" y1="69.49" x2="95.06" y2="72.49"/><line class="cls-3" x1="117.16" y1="69.49" x2="117.16" y2="72.49"/><line class="cls-3" x1="138.73" y1="69.55" x2="138.73" y2="72.55"/><line class="cls-3" x1="160.86" y1="69.56" x2="160.86" y2="72.56"/><circle class="cls-11" cx="95.16" cy="163.06" r="1.64"/><circle class="cls-11" cx="117.27" cy="143.22" r="1.64"/><circle class="cls-11" cx="138.85" cy="119.39" r="1.64"/><circle class="cls-11" cx="160.96" cy="100.57" r="1.64"/><rect class="cls-7" x="68.63" y="69.53" width="6.99" height="6.99" transform="translate(-5.95 141.44) rotate(-90)"/><text class="cls-13" transform="translate(6.58 72.56)">DAC_<tspan class="cls-17" x="24.01" y="0">A</tspan><tspan class="cls-18" x="29.34" y="0">VT</tspan><tspan class="cls-15" x="40.84" y="0">T</tspan></text><circle class="cls-11" cx="278.15" cy="95.01" r="0.38"/><circle class="cls-11" cx="279.51" cy="93.72" r="0.38"/><circle class="cls-11" cx="280.96" cy="92.34" r="0.38"/><rect class="cls-5" x="354.8" y="215.05" width="232.87" height="105.8"/><text class="cls-6" transform="translate(360.46 226.64)">RF DAC Block 3</text><rect class="cls-7" x="490.5" y="269.36" width="23.53" height="17.12"/><ellipse class="cls-8" cx="531.02" cy="253.35" rx="5.87" ry="6.3" transform="translate(-28.66 445.98) rotate(-45)"/><line class="cls-3" x1="528.14" y1="247.48" x2="523.76" y2="251.86"/><line class="cls-3" x1="523.79" y1="247.44" x2="528.17" y2="251.82"/><ellipse class="cls-8" cx="531.1" cy="310.29" rx="5.87" ry="6.3" transform="translate(-68.9 462.71) rotate(-45)"/><line class="cls-3" x1="523.9" y1="308.73" x2="528.28" y2="304.35"/><line class="cls-3" x1="528.24" y1="308.77" x2="523.87" y2="304.39"/><line class="cls-9" x1="526.09" y1="300.05" x2="526.09" y2="282.25"/><line class="cls-3" x1="526.09" y1="296.47" x2="526.09" y2="282.25"/><polygon class="cls-4" points="523.6 295.74 526.09 300.05 528.58 295.74 523.6 295.74"/><line class="cls-3" x1="526.09" y1="282.25" x2="514.44" y2="282.25"/><text class="cls-6" transform="translate(492.32 280.84)">NCO</text><line class="cls-3" x1="526.09" y1="273.52" x2="514.44" y2="273.52"/><line class="cls-9" x1="526.09" y1="255.72" x2="526.09" y2="273.52"/><line class="cls-3" x1="526.09" y1="259.31" x2="526.09" y2="273.52"/><polygon class="cls-4" points="528.58 260.04 526.09 255.72 523.6 260.04 528.58 260.04"/><rect class="cls-7" x="554.27" y="298.29" width="16.58" height="16.58"/><line class="cls-9" x1="562.56" y1="301.1" x2="562.56" y2="311.96"/><line class="cls-3" x1="562.56" y1="304.69" x2="562.56" y2="311.96"/><polygon class="cls-4" points="565.06 305.42 562.56 301.1 560.07 305.42 565.06 305.42"/><line class="cls-9" x1="532.71" y1="306.54" x2="554.27" y2="306.54"/><line class="cls-3" x1="536.3" y1="306.54" x2="554.27" y2="306.54"/><polygon class="cls-4" points="537.02 304.05 532.71 306.54 537.02 309.04 537.02 304.05"/><rect class="cls-7" x="554.27" y="241.38" width="16.58" height="16.58"/><line class="cls-9" x1="562.56" y1="244.19" x2="562.56" y2="255.05"/><line class="cls-3" x1="562.56" y1="247.78" x2="562.56" y2="255.05"/><polygon class="cls-4" points="565.06 248.51 562.56 244.19 560.07 248.51 565.06 248.51"/><line class="cls-9" x1="531.6" y1="249.63" x2="554.27" y2="249.63"/><line class="cls-3" x1="535.19" y1="249.63" x2="554.27" y2="249.63"/><polygon class="cls-4" points="535.92 247.14 531.6 249.63 535.92 252.13 535.92 247.14"/><line class="cls-9" x1="570.85" y1="306.58" x2="579.91" y2="306.58"/><line class="cls-3" x1="574.44" y1="306.58" x2="579.91" y2="306.58"/><polygon class="cls-4" points="575.17 304.09 570.85 306.58 575.17 309.07 575.17 304.09"/><rect class="cls-7" x="584.19" y="274.01" width="6.99" height="6.99"/><line class="cls-9" x1="570.85" y1="249.71" x2="579.91" y2="249.71"/><line class="cls-3" x1="574.44" y1="249.71" x2="579.91" y2="249.71"/><polygon class="cls-4" points="575.17 247.21 570.85 249.71 575.17 252.2 575.17 247.21"/><line class="cls-9" x1="477.34" y1="284.17" x2="477.34" y2="306.58"/><line class="cls-3" x1="477.34" y1="287.76" x2="477.34" y2="306.58"/><polygon class="cls-4" points="479.83 288.48 477.34 284.17 474.85 288.48 479.83 288.48"/><line class="cls-9" x1="477.34" y1="272.43" x2="477.34" y2="249.71"/><line class="cls-3" x1="477.34" y1="268.84" x2="477.34" y2="249.71"/><polygon class="cls-4" points="474.85 268.11 477.34 272.43 479.83 268.11 474.85 268.11"/><line class="cls-3" x1="519.97" y1="249.71" x2="477.34" y2="249.71"/><rect class="cls-7" x="351.31" y="274.86" width="6.99" height="6.99"/><ellipse class="cls-7" cx="477.34" cy="278.3" rx="6.3" ry="5.87"/><line class="cls-3" x1="477.34" y1="275.25" x2="477.34" y2="281.45"/><line class="cls-3" x1="474.24" y1="278.3" x2="480.44" y2="278.3"/><line class="cls-3" x1="519.97" y1="306.58" x2="477.34" y2="306.58"/><line class="cls-3" x1="377.29" y1="278.35" x2="361.89" y2="278.35"/><polygon class="cls-4" points="362.62 280.84 358.3 278.35 362.62 275.86 362.62 280.84"/><rect class="cls-7" x="373.17" y="269.79" width="81.87" height="17.12"/><text class="cls-6" transform="translate(375.99 280.41)">Further Processing</text><line class="cls-3" x1="471.04" y1="277.91" x2="459.43" y2="277.91"/><polygon class="cls-4" points="460.16 280.41 455.84 277.91 460.16 275.42 460.16 280.41"/><text class="cls-10" transform="translate(544.73 226.64)">Follower</text><line class="cls-3" x1="579.91" y1="277.5" x2="579.91" y2="249.23"/><line class="cls-3" x1="584.37" y1="277.5" x2="579.41" y2="277.5"/><line class="cls-3" x1="579.91" y1="306.58" x2="579.91" y2="277.5"/><rect class="cls-5" x="314.52" y="267.56" width="232.87" height="105.8"/><text class="cls-6" transform="translate(320.18 279.15)">RF DAC Block 2</text><rect class="cls-7" x="450.22" y="321.87" width="23.53" height="17.12"/><ellipse class="cls-8" cx="490.74" cy="305.85" rx="5.87" ry="6.3" transform="translate(-77.58 432.88) rotate(-45)"/><line class="cls-3" x1="487.86" y1="299.99" x2="483.48" y2="304.37"/><line class="cls-3" x1="483.51" y1="299.95" x2="487.89" y2="304.33"/><ellipse class="cls-8" cx="490.82" cy="362.8" rx="5.87" ry="6.3" transform="translate(-117.83 449.61) rotate(-45)"/><line class="cls-3" x1="483.62" y1="361.24" x2="488" y2="356.86"/><line class="cls-3" x1="487.96" y1="361.28" x2="483.59" y2="356.9"/><line class="cls-9" x1="485.81" y1="352.56" x2="485.81" y2="334.76"/><line class="cls-3" x1="485.81" y1="348.98" x2="485.81" y2="334.76"/><polygon class="cls-4" points="483.32 348.25 485.81 352.56 488.3 348.25 483.32 348.25"/><line class="cls-3" x1="485.81" y1="334.76" x2="474.16" y2="334.76"/><text class="cls-6" transform="translate(452.03 333.35)">NCO</text><line class="cls-3" x1="485.81" y1="326.03" x2="474.16" y2="326.03"/><line class="cls-9" x1="485.81" y1="308.23" x2="485.81" y2="326.03"/><line class="cls-3" x1="485.81" y1="311.82" x2="485.81" y2="326.03"/><polygon class="cls-4" points="488.3 312.55 485.81 308.23 483.32 312.55 488.3 312.55"/><rect class="cls-7" x="513.99" y="350.8" width="16.58" height="16.58"/><line class="cls-9" x1="522.28" y1="353.61" x2="522.28" y2="364.47"/><line class="cls-3" x1="522.28" y1="357.2" x2="522.28" y2="364.47"/><polygon class="cls-4" points="524.78 357.93 522.28 353.61 519.79 357.93 524.78 357.93"/><line class="cls-9" x1="492.43" y1="359.05" x2="513.99" y2="359.05"/><line class="cls-3" x1="496.02" y1="359.05" x2="513.99" y2="359.05"/><polygon class="cls-4" points="496.74 356.56 492.43 359.05 496.74 361.55 496.74 356.56"/><rect class="cls-7" x="513.99" y="293.89" width="16.58" height="16.58"/><line class="cls-9" x1="522.28" y1="296.7" x2="522.28" y2="307.56"/><line class="cls-3" x1="522.28" y1="300.29" x2="522.28" y2="307.56"/><polygon class="cls-4" points="524.78 301.02 522.28 296.7 519.79 301.02 524.78 301.02"/><line class="cls-9" x1="491.32" y1="302.14" x2="513.99" y2="302.14"/><line class="cls-3" x1="494.91" y1="302.14" x2="513.99" y2="302.14"/><polygon class="cls-4" points="495.64 299.65 491.32 302.14 495.64 304.64 495.64 299.65"/><line class="cls-9" x1="530.57" y1="359.09" x2="539.63" y2="359.09"/><line class="cls-3" x1="534.16" y1="359.09" x2="539.63" y2="359.09"/><polygon class="cls-4" points="534.89 356.6 530.57 359.09 534.89 361.58 534.89 356.6"/><rect class="cls-7" x="543.91" y="326.52" width="6.99" height="6.99"/><line class="cls-9" x1="530.57" y1="302.22" x2="539.63" y2="302.22"/><line class="cls-3" x1="534.16" y1="302.22" x2="539.63" y2="302.22"/><polygon class="cls-4" points="534.89 299.72 530.57 302.22 534.89 304.71 534.89 299.72"/><line class="cls-9" x1="550.89" y1="330.01" x2="640.95" y2="330.01"/><line class="cls-9" x1="437.06" y1="336.68" x2="437.06" y2="359.09"/><line class="cls-3" x1="437.06" y1="340.27" x2="437.06" y2="359.09"/><polygon class="cls-4" points="439.55 340.99 437.06 336.68 434.57 340.99 439.55 340.99"/><line class="cls-9" x1="437.06" y1="324.94" x2="437.06" y2="302.22"/><line class="cls-3" x1="437.06" y1="321.35" x2="437.06" y2="302.22"/><polygon class="cls-4" points="434.57 320.62 437.06 324.94 439.55 320.62 434.57 320.62"/><line class="cls-3" x1="479.69" y1="302.22" x2="437.06" y2="302.22"/><ellipse class="cls-7" cx="437.06" cy="330.81" rx="6.3" ry="5.87"/><line class="cls-3" x1="437.06" y1="327.76" x2="437.06" y2="333.96"/><line class="cls-3" x1="433.96" y1="330.81" x2="440.16" y2="330.81"/><line class="cls-3" x1="479.69" y1="359.09" x2="437.06" y2="359.09"/><rect class="cls-7" x="332.89" y="322.3" width="81.87" height="17.12"/><text class="cls-6" transform="translate(335.7 332.92)">Further Processing</text><line class="cls-3" x1="430.76" y1="330.42" x2="419.15" y2="330.42"/><polygon class="cls-4" points="419.88 332.92 415.56 330.42 419.88 327.93 419.88 332.92"/><text class="cls-10" transform="translate(504.45 279.15)">Follower</text><line class="cls-3" x1="539.63" y1="330.01" x2="539.63" y2="301.74"/><line class="cls-3" x1="544.09" y1="330.01" x2="539.13" y2="330.01"/><line class="cls-3" x1="539.63" y1="359.09" x2="539.63" y2="330.01"/><rect class="cls-7" x="311.47" y="327.65" width="6.99" height="6.99"/><line class="cls-3" x1="322.24" y1="331.15" x2="332.89" y2="331.15"/><polygon class="cls-4" points="322.97 333.64 318.65 331.15 322.97 328.65 322.97 333.64"/><text class="cls-13" transform="translate(325.8 222.62)"><tspan class="cls-14">T<tspan class="cls-19" x="5.16" y="0">ile</tspan></tspan><tspan x="-6.42" y="10.8">Clocks</tspan></text><line class="cls-3" x1="599.5" y1="99.04" x2="633.6" y2="99.04"/><polygon class="cls-4" points="600.23 101.54 595.92 99.05 600.23 96.55 600.23 101.54"/><line class="cls-9" x1="555.28" y1="151.68" x2="645.34" y2="151.68"/><text class="cls-12" transform="translate(643.07 149.3)">AXI-Stream<tspan x="0.25" y="10.8">Real / Imag</tspan></text><line class="cls-3" x1="559.22" y1="151.68" x2="633.6" y2="151.68"/><polygon class="cls-4" points="559.95 154.17 555.63 151.68 559.95 149.19 559.95 154.17"/><line class="cls-9" x1="591.08" y1="277.37" x2="681.14" y2="277.37"/><text class="cls-12" transform="translate(638.59 275.73)">AXI-Stream<tspan x="0.25" y="10.8">Real / Imag</tspan></text><line class="cls-9" x1="550.8" y1="329.88" x2="640.86" y2="329.88"/><line class="cls-3" x1="595.02" y1="277.37" x2="629.12" y2="277.37"/><polygon class="cls-4" points="595.75 279.87 591.43 277.37 595.75 274.88 595.75 279.87"/><line class="cls-9" x1="550.8" y1="330.01" x2="640.86" y2="330.01"/><text class="cls-12" transform="translate(638.59 327.63)">AXI-Stream<tspan x="0.25" y="10.8">Real / Imag</tspan></text><line class="cls-3" x1="554.74" y1="330.01" x2="629.12" y2="330.01"/><polygon class="cls-4" points="555.47 332.5 551.15 330.01 555.47 327.51 555.47 332.5"/><text class="cls-12" transform="translate(2 10.76)">ZU28DR RFSoC Device</text></svg>